<?xml version="1.0" encoding="iso-8859-1"?>
<!-- Generator: Adobe Illustrator 16.0.3, SVG Export Plug-In . SVG Version: 6.00 Build 0)  -->
<!DOCTYPE svg PUBLIC "-//W3C//DTD SVG 1.1//EN" "http://www.w3.org/Graphics/SVG/1.1/DTD/svg11.dtd">
<svg version="1.1" id="Layer_1" xmlns="http://www.w3.org/2000/svg" xmlns:xlink="http://www.w3.org/1999/xlink" x="0px" y="0px"
	 width="612px" height="792px" viewBox="0 0 612 792" style="enable-background:new 0 0 612 792;" xml:space="preserve">
<g>
	<path style="fill-rule:evenodd;clip-rule:evenodd;fill:#26120B;" d="M69.933,421.082c-1.391,4.289-2.365,8.668-3.556,13.005h57.796
		c1.587-2.595,3.125-5.218,4.885-7.772c10.079-14.671,21.982-27.263,38.072-34.761c10.255-4.764,20.919-7.586,32.113-8.657
		c25.353-2.434,48.964,3.625,71.404,15.646c10.076,5.391,19.487,11.979,27.587,20.227c4.833,4.923,8.582,11.002,12.154,17.074
		c0.379,0.654,0.506,1.591,1.746,1.804c2.97-5.136,6.357-10.161,10.034-14.919c6.443-8.357,14.829-14.348,23.463-19.862
		c16.385-10.475,34.147-17.229,53.163-19.611c26.795-3.376,52.109,1.153,74.12,18.716c11.552,9.212,20.116,21.294,27.786,34.051
		c19.188-0.44,38.389,0.124,57.59,0.937c-1.143-4.337-2.334-8.675-3.725-12.971c-1.253-3.883-1.212-6.547,1.239-10.093
		c13.363-19.332,17.528-41.879,18.829-65.07c0.833-14.888,0.971-29.883-1.369-44.712c-1.57-9.997-4.159-19.687-8.909-28.595
		c-2.217-4.166-5.673-6.131-10.217-5.601c-25.267,2.96-47.181,13.553-65.638,31.969c-2.135,2.127-3.979,5.648-6.39,6.113
		c-2.754,0.534-4.922-3.236-7.325-5.136c-13.521-10.823-28.199-19.518-43.738-26.675c-13.948-5.886-28.475-9.673-43.132-12.943
		c-5.729-0.52-11.429-1.312-17.17-1.474c-11.773-0.32-23.532,0.142-35.305,0.455c-18.052,0.475-36.103,0.53-54.158-0.337
		c-15.198-0.723-30.434-0.802-45.576,1.374c-4.943,1.153-9.89,2.296-14.83,3.456c-9.701,2.258-18.96,5.986-28.286,9.477
		c-17.711,8.072-34.227,18.275-49.136,31.229c-1.755,1.508-2.578,0.65-3.749-0.633c-3.37-3.68-6.744-7.367-10.547-10.582
		c-16.85-14.244-35.783-23.273-57.387-25.917c-7.226-0.885-10.275,0.492-13.587,7.36c-5.948,12.33-8.551,25.659-9.191,39.259
		c-0.819,17.342-0.774,34.712,2.113,51.924c2.881,17.17,7.945,33.397,18.227,47.387C70.535,417.847,70.518,419.299,69.933,421.082z
		 M504.584,327.024c9.343-8.275,19.931-13.47,32.055-15.188c3.498-0.482,5.921,0.747,7.483,4.145
		c2.252,4.881,3.959,10.01,4.372,15.359c0.372,4.678,1.439,9.333,1.047,12.331c-0.551,14.682-1.501,27.511-7.099,39.391
		c-0.495,1.063-0.764,2.64-1.976,2.805c-1.439,0.166-1.528-1.569-2.045-2.551c-6.774-13.001-14.079-25.642-22.754-37.342
		c-3.531-4.764-7.242-9.391-11.152-13.831C502.726,330.098,502.491,328.89,504.584,327.024z M75.747,327.627
		c0.851-4.352,2.141-8.575,4.224-12.468c1.305-2.455,3.181-3.832,4.833-3.511c14.01,1.59,25.146,7.046,34.812,15.979
		c1.563,1.435,1.315,2.447-0.014,3.931c-13.976,15.525-24.785,33.367-34.537,52.003c-0.458,0.892-0.537,2.368-1.804,2.316
		c-1.157-0.055-1.411-1.425-1.849-2.351c-3.453-7.287-5.497-15.032-6.348-23.074C73.919,349.499,73.633,338.521,75.747,327.627z"/>
	<path style="fill-rule:evenodd;clip-rule:evenodd;fill:#BE894A;" d="M558.643,452.586c-19.099-0.819-38.176-1.377-57.239-0.978
		c0.461,0.799,0.95,1.535,1.404,2.313c10.52,18.024,16.702,37.797,19.504,58.589c4.207,31.407,0.241,61.823-11.297,91.139
		c-6.975,17.721-16.042,33.893-29.632,47.063c-11.828,11.456-25.336,19.944-40.007,26.54c-18.485,8.282-37.955,12.688-57.782,15.153
		c-16,1.955-32.158,2.506-48.275,1.693c-10.203-0.523-20.402-2.259-30.606-1.309c-13.149,1.226-26.296,1.832-39.466,1.37
		c-25.384-0.819-50.382-4.399-74.413-13.404c-21.776-8.179-41.188-20.33-56.685-38.732c-9.979-11.855-16.671-25.722-22.244-40.269
		c-6.778-17.68-10.667-36.007-11.711-55.111c-1.91-35.291,5.632-67.655,23.253-96.95h-57.38
		c-3.542,13.095-6.482,26.334-8.286,39.904c-3.009,22.554-4.647,45.135-2.978,67.938c1.253,17.129,4.23,33.845,9.432,50.092
		c10.137,31.656,27.462,57.941,53.442,77.445c34.64,26.018,74.199,33.756,115.7,33.108c12.254-0.213,24.551-0.522,36.819-0.998
		c17.16-0.682,34.344-0.048,51.511-0.365c28.289-0.468,56.53,2.038,84.84,1.02c22.939-0.785,45.225-5.026,66.595-13.989
		c28.785-12.008,52.165-31.271,69.115-58.609c17.734-28.592,25.445-60.578,27.043-94.285c0.784-16.551-0.09-33.039-1.97-49.556
		C565.458,484.889,562.773,468.545,558.643,452.586z"/>
	<path style="fill-rule:evenodd;clip-rule:evenodd;fill:#F1E3C9;" d="M431.662,278.446c-13.948-5.886-28.475-9.683-43.133-12.957
		c1.122-3.556,4.606-4.44,6.961-6.537c7.827-7.016,13.631-15.583,18.292-25.026c3.408-6.912,6.045-14.186,8.063-21.71
		c0.784-2.933-0.18-4.162-2.438-4.716c-8.234-2.048-15.49-6.189-22.361-11.136c-10.21-7.339-18.3-16.826-23.917-28.348
		c-3.25-6.637-2.244-16.692,2.905-22.289c5.907-6.413,14.443-8.044,22.251-4.95c5.535,2.192,8.221,6.981,11.07,11.71
		c3.525,5.838,8.447,9.973,14.072,13.325c2.135,1.277,2.802,0.757,2.878-1.862c0.248-8.31-1.797-16.203-3.69-24.117
		c-3.125-13.046-8.578-24.964-16.262-35.725c-2.064-2.892-4.392-5.566-6.595-8.348c-5.067-6.333-5.783-13.539-2.589-20.729
		c3.146-7.07,8.523-11.226,16.44-11.797c9.68-0.695,15.298,5.315,20.654,12.289c11.938,15.521,20.145,33.125,25.466,52.151
		c2.788,10.007,4.076,20.389,5.102,30.815c0.743,7.525,0.771,15.036,0.544,22.551c-0.345,12.059-2.052,23.972-4.792,35.707
		c-0.24,1.026-0.447,2.104-0.475,3.15c-0.049,1.356,0.303,1.99,1.831,1.256c13.081-6.217,22.939-15.229,26.024-30.881
		c2.313-11.773,16.949-18.179,26.987-12.176c8.743,5.232,12.2,13.387,10.052,23.742c-3.772,18.1-13.535,32.141-26.885,43.714
		c-12.179,10.585-26.513,16.306-41.728,19.69c-4.186,0.936-8.564,1.508-12.943,1.108c-1.583-0.151-2.864,0.096-3.966,1.68
		C437.012,271.61,434.278,274.99,431.662,278.446z"/>
	<path style="fill-rule:evenodd;clip-rule:evenodd;fill:#F1E3C9;" d="M236.317,265.514c-4.94,1.149-9.883,2.303-14.826,3.453
		c-9.701,2.275-18.964,5.986-28.286,9.487c-2.623-3.453-5.294-6.874-7.838-10.403c-0.86-1.17-1.728-1.779-3.188-1.725
		c-10.237,0.375-20.065-1.997-29.539-5.752c-23.525-9.322-41.304-25.043-50.499-50.409c-2.3-6.358-3.587-12.626-2.224-19.222
		c2.344-11.332,15.673-18.54,25.869-13.483c6.313,3.139,9.928,7.78,11.628,15.26c2.826,12.485,11.098,20.871,21.8,26.592
		c1.621,0.871,3.601,3.143,5.063,1.828c1.618-1.442-0.024-3.993-0.448-6.052c-1.676-8.106-2.771-16.306-3.742-24.547
		c-0.96-8.203-0.988-16.396-0.599-24.579c1.001-21.046,5.229-41.373,13.524-60.691c5.608-13.053,13.408-24.547,22.213-35.342
		c7.704-9.418,22.933-8.833,29.687,0.43c5.219,7.15,7.828,17.397-2.475,28.933c-6.2,6.943-10.785,14.946-14.438,23.576
		c-5.435,12.83-8.833,26.193-9.432,40.296c-0.159,3.477,0.75,4.113,3.559,2.279c5.263-3.418,10.265-7.181,13.315-12.981
		c4.592-8.733,10.902-13.852,20.929-13.174c8.647,0.603,16.31,9.05,16.992,18.113c0.664,8.854-3.718,15.088-8.228,21.459
		c-8.867,12.534-20.633,21.074-34.151,27.15c-2.809,1.25-7.326,0.189-8.117,3.931c-0.578,2.768,1.16,6.186,2.2,9.191
		c3.972,11.394,9.043,22.127,16.551,31.552c3.828,4.809,8.141,8.857,13.008,12.344C235.529,263.672,236.283,264.285,236.317,265.514
		z"/>
	<path style="fill-rule:evenodd;clip-rule:evenodd;fill:#F1E3C9;" d="M550.153,342.453c-0.551,14.682-1.508,27.511-7.098,39.394
		c-0.496,1.057-0.758,2.637-1.983,2.795c-1.418,0.186-1.528-1.58-2.037-2.547c-6.775-12.992-14.086-25.639-22.747-37.339
		c-3.532-4.761-7.25-9.394-11.153-13.832c-1.797-2.048-2.024-3.253,0.068-5.119c9.329-8.279,19.938-13.47,32.056-15.188
		c3.483-0.489,5.921,0.747,7.477,4.148c2.251,4.875,3.951,10.014,4.379,15.353C549.485,334.793,550.553,339.448,550.153,342.453z"/>
	<path style="fill-rule:evenodd;clip-rule:evenodd;fill:#F1E3C9;" d="M85.419,312.37c14.003,1.58,25.14,7.022,34.819,15.969
		c1.549,1.432,1.305,2.44-0.028,3.931c-13.962,15.511-24.785,33.366-34.526,52.01c-0.464,0.885-0.541,2.351-1.8,2.307
		c-1.167-0.052-1.415-1.422-1.862-2.351c-3.442-7.277-5.49-15.029-6.344-23.067c-1.149-10.97-1.428-21.941,0.688-32.829
		c0.843-4.358,2.131-8.575,4.224-12.468C81.895,313.42,83.76,312.033,85.419,312.37z"/>
</g>
</svg>
