<?xml version="1.0" encoding="iso-8859-1"?>
<!-- Generator: Adobe Illustrator 16.0.3, SVG Export Plug-In . SVG Version: 6.00 Build 0)  -->
<!DOCTYPE svg PUBLIC "-//W3C//DTD SVG 1.1//EN" "http://www.w3.org/Graphics/SVG/1.1/DTD/svg11.dtd">
<svg version="1.1" id="Layer_1" xmlns="http://www.w3.org/2000/svg" xmlns:xlink="http://www.w3.org/1999/xlink" x="0px" y="0px"
	 width="612px" height="792px" viewBox="0 0 612 792" style="enable-background:new 0 0 612 792;" xml:space="preserve">
<g>
	<path style="fill-rule:evenodd;clip-rule:evenodd;fill:#C7B299;" d="M103.693,422.848c-1.23,3.795-2.087,7.662-3.146,11.495h51.052
		c1.396-2.29,2.76-4.616,4.309-6.868c8.905-12.95,19.415-24.065,33.632-30.701c9.059-4.211,18.472-6.708,28.357-7.651
		c22.396-2.142,43.248,3.195,63.067,13.82c8.905,4.774,17.21,10.577,24.366,17.872c4.271,4.333,7.583,9.72,10.735,15.081
		c0.331,0.576,0.453,1.396,1.536,1.592c2.626-4.542,5.625-8.973,8.857-13.185c5.704-7.381,13.098-12.669,20.736-17.541
		c14.47-9.254,30.161-15.216,46.957-17.309c23.649-2.987,46.027,1.003,65.466,16.524c10.196,8.129,17.762,18.804,24.531,30.077
		c16.942-0.379,33.908,0.11,50.874,0.821c-1.016-3.82-2.056-7.664-3.292-11.458c-1.114-3.429-1.077-5.778,1.089-8.912
		c11.801-17.077,15.474-36.993,16.636-57.46c0.722-13.159,0.857-26.404-1.211-39.502c-1.384-8.826-3.673-17.382-7.859-25.253
		c-1.958-3.679-5.02-5.417-9.034-4.952c-22.315,2.62-41.669,11.972-57.975,28.234c-1.886,1.886-3.524,4.995-5.631,5.405
		c-2.448,0.471-4.357-2.858-6.487-4.535c-11.924-9.555-24.899-17.242-38.634-23.558c-12.314-5.203-25.143-8.544-38.082-11.434
		c-5.055-0.459-10.099-1.157-15.167-1.298c-10.405-0.287-20.786,0.123-31.19,0.398c-15.938,0.416-31.882,0.465-47.833-0.3
		c-13.416-0.637-26.875-0.71-40.249,1.218c-4.364,1.016-8.734,2.026-13.092,3.048c-8.575,1.995-16.746,5.294-24.991,8.373
		c-15.638,7.13-30.223,16.14-43.395,27.58c-1.548,1.334-2.276,0.575-3.312-0.557c-2.98-3.25-5.949-6.506-9.315-9.346
		c-14.879-12.584-31.601-20.559-50.685-22.897c-6.384-0.778-9.071,0.434-11.997,6.506c-5.264,10.889-7.553,22.659-8.122,34.679
		c-0.729,15.308-0.685,30.652,1.867,45.856c2.546,15.167,7.021,29.488,16.104,41.853
		C104.22,419.996,104.207,421.281,103.693,422.848z M487.577,339.785c8.263-7.308,17.615-11.898,28.326-13.416
		c3.084-0.429,5.215,0.661,6.61,3.654c1.983,4.315,3.476,8.85,3.856,13.569c0.33,4.131,1.26,8.238,0.917,10.889
		c-0.477,12.963-1.321,24.298-6.268,34.802c-0.44,0.93-0.661,2.325-1.751,2.472c-1.26,0.147-1.346-1.395-1.799-2.252
		c-5.974-11.482-12.437-22.646-20.1-32.984c-3.109-4.204-6.39-8.299-9.842-12.216C485.937,342.497,485.729,341.432,487.577,339.785z
		 M108.823,340.312c0.752-3.838,1.897-7.577,3.733-11.011c1.151-2.167,2.804-3.385,4.266-3.098
		c12.376,1.402,22.211,6.219,30.75,14.108c1.377,1.273,1.157,2.161-0.013,3.47c-12.345,13.723-21.894,29.464-30.505,45.941
		c-0.41,0.783-0.472,2.081-1.592,2.032c-1.022-0.049-1.242-1.249-1.634-2.069c-3.048-6.426-4.854-13.282-5.613-20.381
		C107.207,359.634,106.956,349.933,108.823,340.312z"/>
	<path style="fill-rule:evenodd;clip-rule:evenodd;fill:#BE894A;" d="M535.317,450.685c-16.843-0.734-33.711-1.224-50.556-0.857
		c0.416,0.698,0.856,1.347,1.248,2.032c9.291,15.914,14.763,33.395,17.235,51.755c3.71,27.728,0.209,54.596-9.987,80.499
		c-6.146,15.645-14.152,29.931-26.172,41.559c-10.442,10.111-22.378,17.615-35.329,23.455c-16.33,7.308-33.528,11.188-51.045,13.367
		c-14.127,1.738-28.4,2.203-42.624,1.493c-9.01-0.453-18.025-1.995-27.035-1.15c-11.617,1.076-23.228,1.615-34.856,1.199
		c-22.426-0.723-44.503-3.881-65.723-11.825c-19.231-7.222-36.381-17.958-50.067-34.214c-8.813-10.479-14.72-22.721-19.646-35.573
		c-5.986-15.607-9.426-31.79-10.344-48.671c-1.689-31.166,4.97-59.75,20.535-85.627h-50.679c-3.122,11.567-5.723,23.259-7.32,35.242
		c-2.657,19.929-4.095,39.87-2.626,60.006c1.108,15.131,3.74,29.893,8.33,44.24c8.955,27.958,24.256,51.181,47.202,68.416
		c30.591,22.952,65.534,29.808,102.189,29.232c10.828-0.185,21.686-0.466,32.519-0.881c15.16-0.601,30.334-0.051,45.501-0.319
		c24.972-0.404,49.931,1.799,74.916,0.882c20.271-0.686,39.954-4.432,58.83-12.34c25.413-10.612,46.077-27.615,61.034-51.768
		c15.67-25.254,22.488-53.506,23.896-83.276c0.686-14.616-0.087-29.184-1.738-43.764
		C541.34,479.206,538.978,464.786,535.317,450.685z"/>
	<path style="fill-rule:evenodd;clip-rule:evenodd;fill:#F0E3C9;" d="M423.176,296.88c-12.326-5.202-25.143-8.557-38.095-11.452
		c0.992-3.134,4.064-3.917,6.145-5.772c6.917-6.193,12.034-13.765,16.159-22.095c3.012-6.115,5.337-12.541,7.112-19.176
		c0.698-2.595-0.146-3.685-2.154-4.174c-7.259-1.806-13.673-5.459-19.732-9.83c-9.022-6.481-16.171-14.861-21.128-25.039
		c-2.865-5.858-1.983-14.745,2.57-19.69c5.215-5.661,12.755-7.1,19.647-4.364c4.896,1.928,7.258,6.163,9.779,10.344
		c3.109,5.153,7.468,8.808,12.426,11.764c1.886,1.126,2.484,0.667,2.533-1.641c0.221-7.345-1.579-14.31-3.256-21.306
		c-2.754-11.519-7.564-22.046-14.359-31.551c-1.823-2.559-3.88-4.915-5.826-7.375c-4.468-5.588-5.104-11.954-2.277-18.307
		c2.779-6.243,7.529-9.916,14.506-10.424c8.569-0.605,13.515,4.701,18.252,10.858c10.539,13.71,17.786,29.256,22.487,46.063
		c2.473,8.838,3.599,18.007,4.505,27.212c0.66,6.646,0.686,13.288,0.489,19.917c-0.318,10.656-1.812,21.177-4.235,31.54
		c-0.221,0.906-0.392,1.86-0.429,2.785c-0.037,1.193,0.282,1.757,1.628,1.108c11.556-5.484,20.247-13.447,22.989-27.268
		c2.031-10.405,14.959-16.06,23.834-10.76c7.724,4.621,10.772,11.819,8.874,20.969c-3.33,15.988-11.96,28.388-23.748,38.609
		c-10.76,9.353-23.405,14.402-36.857,17.395c-3.686,0.826-7.553,1.328-11.433,0.973c-1.396-0.135-2.534,0.092-3.49,1.487
		C427.9,290.838,425.489,293.826,423.176,296.88z"/>
	<path style="fill-rule:evenodd;clip-rule:evenodd;fill:#F0E3C9;" d="M250.643,285.452c-4.358,1.016-8.728,2.039-13.098,3.055
		c-8.563,2.008-16.746,5.282-24.978,8.379c-2.313-3.048-4.676-6.078-6.923-9.193c-0.764-1.034-1.529-1.567-2.815-1.524
		c-9.04,0.336-17.719-1.763-26.086-5.074c-20.785-8.238-36.484-22.126-44.6-44.521c-2.039-5.625-3.171-11.158-1.965-16.985
		c2.063-10.007,13.839-16.378,22.848-11.904c5.576,2.772,8.765,6.867,10.265,13.471c2.503,11.029,9.799,18.436,19.255,23.491
		c1.433,0.771,3.184,2.773,4.468,1.616c1.438-1.28-0.012-3.526-0.392-5.35c-1.475-7.155-2.442-14.402-3.305-21.679
		c-0.845-7.247-0.869-14.475-0.526-21.704c0.881-18.595,4.621-36.546,11.941-53.61c4.952-11.525,11.843-21.679,19.628-31.215
		c6.8-8.318,20.247-7.798,26.215,0.379c4.615,6.316,6.917,15.369-2.185,25.553c-5.478,6.133-9.523,13.208-12.75,20.823
		c-4.798,11.341-7.804,23.142-8.33,35.591c-0.147,3.072,0.661,3.635,3.139,2.02c4.646-3.024,9.071-6.347,11.758-11.464
		c4.063-7.718,9.627-12.235,18.49-11.641c7.632,0.532,14.401,8,15.001,15.999c0.594,7.823-3.281,13.325-7.259,18.956
		c-7.84,11.072-18.227,18.612-30.168,23.974c-2.479,1.108-6.47,0.165-7.167,3.477c-0.508,2.448,1.028,5.466,1.94,8.116
		c3.514,10.068,7.988,19.543,14.623,27.874c3.378,4.241,7.186,7.815,11.482,10.9C249.951,283.831,250.612,284.363,250.643,285.452z"
		/>
	<path style="fill-rule:evenodd;clip-rule:evenodd;fill:#F0E3C9;" d="M527.826,353.41c-0.49,12.97-1.322,24.292-6.268,34.795
		c-0.44,0.931-0.673,2.326-1.738,2.473c-1.273,0.16-1.346-1.395-1.812-2.252c-5.974-11.482-12.438-22.646-20.088-32.983
		c-3.122-4.199-6.402-8.3-9.854-12.217c-1.592-1.806-1.788-2.871,0.072-4.517c8.226-7.314,17.603-11.898,28.303-13.416
		c3.084-0.429,5.227,0.655,6.609,3.66c1.983,4.303,3.478,8.844,3.869,13.563C527.238,346.646,528.181,350.753,527.826,353.41z"/>
	<path style="fill-rule:evenodd;clip-rule:evenodd;fill:#F0E3C9;" d="M117.367,326.84c12.37,1.395,22.206,6.206,30.756,14.102
		c1.365,1.267,1.151,2.154-0.024,3.471c-12.333,13.704-21.894,29.471-30.499,45.935c-0.41,0.795-0.471,2.081-1.591,2.044
		c-1.022-0.049-1.249-1.249-1.64-2.082c-3.042-6.427-4.848-13.269-5.606-20.369c-1.016-9.695-1.261-19.377,0.605-29
		c0.753-3.844,1.885-7.571,3.734-11.011C114.257,327.771,115.903,326.541,117.367,326.84z"/>
</g>
</svg>
