<?xml version="1.0" encoding="iso-8859-1"?>
<!-- Generator: Adobe Illustrator 16.0.3, SVG Export Plug-In . SVG Version: 6.00 Build 0)  -->
<!DOCTYPE svg PUBLIC "-//W3C//DTD SVG 1.1//EN" "http://www.w3.org/Graphics/SVG/1.1/DTD/svg11.dtd">
<svg version="1.1" id="Layer_1" xmlns="http://www.w3.org/2000/svg" xmlns:xlink="http://www.w3.org/1999/xlink" x="0px" y="0px"
	 width="792px" height="612px" viewBox="0 0 792 612" style="enable-background:new 0 0 792 612;" xml:space="preserve">
<g>
	<path style="fill:#C7B299;" d="M214.389,312.673v-1.352c0.952-2.429,3.263-4.356,6.933-5.787c4.193-1.621,8.386-1.405,12.581,0.646
		c1.905,0.904,3.455,2.712,4.646,5.43c0.06,0.122,0.099,0.257,0.156,0.385c8.83,0.492,17.538,1.646,26.201,3.188
		c-1.254-7.418-4.571-13.977-9.989-19.657c-7.006-7.337-15.536-11.007-25.589-11.007c-6.337,0-11.317,1.072-14.938,3.218v-20.8
		c0-3.383-1.216-6.288-3.645-8.72c-2.526-2.574-5.624-3.859-9.293-3.859h-0.212c-3.671,0-6.766,1.285-9.292,3.859
		c-2.429,2.432-3.646,5.337-3.646,8.72v51.707C196.719,315.695,205.458,313.725,214.389,312.673z"/>
	<path style="fill:#BE894A;" d="M264.918,315.287c-0.836-0.144-1.669-0.302-2.508-0.438c-7.793-1.283-15.698-2.215-23.623-2.647
		c1.111,2.525,1.69,5.344,1.69,8.486v0.855c0,5.146-1.359,9.508-4.074,13.081c-2.574,3.286-5.6,4.931-9.079,4.931
		c-2.191,0.336-4.359,0.146-6.503-0.568c-4.145-1.332-6.291-4.671-6.433-10.006v-16.24c-2.286,0.257-4.567,0.57-6.839,0.959
		c-6.602,1.119-13.029,2.797-19.25,5.008v34.929c0,1.62,0.62,3.053,1.859,4.286c1.142,1.144,2.644,1.715,4.503,1.715h13.436
		c1.763,0,3.29-0.62,4.576-1.854c1.144-1.144,1.715-2.505,1.715-4.076v2.715c3.621,2.146,8.601,3.216,14.938,3.216
		c10.053,0,18.583-3.665,25.589-11.004c7.051-7.384,10.578-16.225,10.578-26.518C265.493,319.759,265.286,317.493,264.918,315.287z
		 M192.923,324.492c-2.622,0-2.622-4.066,0-4.066C195.544,320.426,195.544,324.492,192.923,324.492z M198.005,330.593
		c2.623,0,2.623,4.065,0,4.065C195.385,334.658,195.385,330.593,198.005,330.593z M201.055,352.951c-2.62,0-2.62-4.065,0-4.065
		C203.677,348.886,203.677,352.951,201.055,352.951z M207.154,319.41c2.623,0,2.623,4.065,0,4.065
		C204.534,323.476,204.534,319.41,207.154,319.41z M209.188,340.756c-2.622,0-2.622-4.065,0-4.065
		C211.81,336.69,211.81,340.756,209.188,340.756z M220.371,351.938c-2.623,0-2.623-4.071,0-4.071
		C222.991,347.867,222.991,351.938,220.371,351.938z M239.682,348.886c-2.62,0-2.62-4.063,0-4.063
		C242.305,344.822,242.305,348.886,239.682,348.886z M244.767,335.674c-2.621,0-2.621-4.065,0-4.065
		C247.388,331.608,247.388,335.674,244.767,335.674z M247.817,317.379c2.62,0,2.62,4.065,0,4.065
		C245.194,321.444,245.194,317.379,247.817,317.379z M249.847,343.807c-2.62,0-2.62-4.066,0-4.066
		C252.473,339.74,252.473,343.807,249.847,343.807z M252.899,334.658c-2.622,0-2.622-4.065,0-4.065
		C255.52,330.593,255.52,334.658,252.899,334.658z"/>
	<path style="fill:#BE894A;" d="M236.635,345.938c-0.132,0-0.132-0.201,0-0.201C236.765,345.737,236.765,345.938,236.635,345.938z"
		/>
	<path style="fill:#26120A;" d="M200.038,344.926c-0.13,0-0.13-0.202,0-0.202C200.17,344.724,200.17,344.926,200.038,344.926z"/>
	<path style="fill:#26120A;" d="M199.022,329.674c-0.13,0-0.13-0.201,0-0.201C199.154,329.473,199.154,329.674,199.022,329.674z"/>
	<path style="fill:#C7B299;" d="M298.299,321.543v-0.855c0-3.385,0.62-6.408,1.86-9.077c1.189-2.718,2.763-4.526,4.717-5.43
		c4.191-2.051,8.386-2.266,12.581-0.646c3.668,1.43,5.955,3.358,6.86,5.787v15.485c1.039,0.175,2.077,0.371,3.117,0.536
		c7.658,1.256,15.341,2.4,23.042,3.389v-34.203c0-2.62-1-4.932-3.001-6.934c-1.906-1.906-4.313-2.859-7.22-2.859h-5.861
		c-2.858,0-5.242,0.953-7.148,2.859c-1.955,1.955-2.93,4.243-2.93,6.863v-8.29c-1.047-2.432-6.003-3.648-14.867-3.648
		c-10.053,0-18.583,3.67-25.589,11.007c-5.82,6.098-9.198,13.216-10.215,21.324c0.7,0.142,1.399,0.291,2.101,0.436
		c7.534,1.483,15.047,3.11,22.568,4.7C298.311,321.837,298.299,321.692,298.299,321.543z"/>
	<path style="fill:#BE894A;" d="M324.316,327.025v1.955c-0.143,5.289-2.263,8.644-6.36,10.073c-2.146,0.67-4.314,0.837-6.505,0.501
		c-3.526,0-6.575-1.645-9.149-4.931c-2.591-3.468-3.912-7.684-3.987-12.632c-6.313-1.267-12.617-2.574-18.909-3.933
		c-1.22-0.267-2.439-0.521-3.659-0.773c-0.702-0.137-1.405-0.272-2.105-0.405c-0.211,1.707-0.356,3.441-0.356,5.234
		c0,10.293,3.525,19.134,10.576,26.518c7.006,7.339,15.536,11.004,25.589,11.004c3.146,0,7.411-1.737,12.794-5.215
		c0.811-0.572,1.69-0.786,2.646-0.646c0.952,0.099,1.809,0.55,2.571,1.359c2.812,3.004,5.219,4.501,7.22,4.501h9.437
		c1.809,0,3.332-0.62,4.574-1.854c1.188-1.144,1.785-2.526,1.785-4.146v-22.705C341.731,329.813,333.011,328.498,324.316,327.025z
		 M280.345,335.674c-2.621,0-2.621-4.065,0-4.065C282.966,331.608,282.966,335.674,280.345,335.674z M283.396,325.509
		c-2.623,0-2.623-4.064,0-4.064C286.015,321.444,286.015,325.509,283.396,325.509z M290.51,329.577c2.621,0,2.621,4.063,0,4.063
		S287.889,329.577,290.51,329.577z M293.56,348.886c-2.623,0-2.623-4.063,0-4.063S296.183,348.886,293.56,348.886z M306.775,343.807
		c2.62,0,2.62,4.061,0,4.061C304.153,347.867,304.153,343.807,306.775,343.807z M309.824,357.018c-2.621,0-2.621-4.066,0-4.066
		C312.447,352.951,312.447,357.018,309.824,357.018z M331.171,350.92c-2.622,0-2.622-4.068,0-4.068
		C333.794,346.852,333.794,350.92,331.171,350.92z M334.222,337.708c-2.623,0-2.623-4.068,0-4.068S336.844,337.708,334.222,337.708z
		 M345.404,350.92c-2.624,0-2.624-4.068,0-4.068C348.026,346.852,348.026,350.92,345.404,350.92z"/>
	<path style="fill:#BE894A;" d="M340.32,350.008c-0.132,0-0.132-0.205,0-0.205C340.453,349.803,340.453,350.008,340.32,350.008z"/>
	<path style="fill:#26120A;" d="M338.288,338.825c-0.132,0-0.132-0.204,0-0.204C338.417,338.621,338.417,338.825,338.288,338.825z"
		/>
	<path style="fill:#26120A;" d="M300.677,347.974c-0.133,0-0.133-0.205,0-0.205C300.806,347.769,300.806,347.974,300.677,347.974z"
		/>
	<path style="fill:#C7B299;" d="M386.93,334.072V316.54c0-3.097,1.023-5.763,3.072-8.005c2.001-2.189,4.383-3.335,7.147-3.428
		c2.906-0.098,5.433,0.905,7.576,3.001c2.191,2.144,3.289,4.788,3.289,7.934v18.624c4.175-0.013,8.343-0.104,12.498-0.389
		c4.622-0.324,9.222-0.847,13.803-1.492V316.54c0-3.097,1.026-5.763,3.074-8.005c2.002-2.189,4.383-3.335,7.149-3.428
		c2.952-0.098,5.479,0.905,7.574,3.001c2.24,2.144,3.36,4.788,3.36,7.934v12.84c8.153-1.805,16.261-3.82,24.371-5.806v-1.244
		c-0.046-11.485-2.955-20.826-8.72-28.021c-6.86-8.622-16.149-11.696-27.874-9.218c-4.011,0.819-9.456,4.529-16.294,11.059
		c-6.487-10.046-16.203-13.769-29.164-11.132c-3.145,0.669-6.028,2.145-8.649,4.433c-0.538,0.449-1.386,1.25-2.521,2.38
		c-0.406-1-1.014-1.912-1.84-2.737c-1.763-1.811-3.906-2.718-6.431-2.718h-8.291c-2.574,0-4.743,0.907-6.505,2.718
		c-1.62,1.62-2.43,3.573-2.43,5.861v37.53C369.708,332.918,378.309,333.629,386.93,334.072z M387.215,291.452v3.004
		c0-0.967-0.177-1.855-0.467-2.705C386.9,291.654,387.019,291.585,387.215,291.452z"/>
	<path style="fill:#BE894A;" d="M408.015,334.762v13.154c0,3.146,1.191,5.91,3.575,8.296c2.285,2.281,5.144,3.425,8.574,3.425h2.073
		c3.385,0,6.267-1.189,8.646-3.575c2.288-2.285,3.432-5,3.432-8.146v-14.951C425.568,334.122,416.804,334.653,408.015,334.762z
		 M414.527,353.967c-2.623,0-2.623-4.065,0-4.065C417.147,349.901,417.147,353.967,414.527,353.967z M415.544,339.74
		c-2.623,0-2.623-4.066,0-4.066C418.166,335.674,418.166,339.74,415.544,339.74z M424.69,353.967c-2.62,0-2.62-4.065,0-4.065
		C427.313,349.901,427.313,353.967,424.69,353.967z"/>
	<path style="fill:#BE894A;" d="M425.709,343.909c-0.131,0-0.131-0.203,0-0.203C425.841,343.706,425.841,343.909,425.709,343.909z"
		/>
	<path style="fill:#BE894A;" d="M455.474,329.138v18.778c0,3.146,1.119,5.86,3.357,8.146c2.383,2.386,5.289,3.575,8.724,3.575h0.212
		c3.429,0,6.338-1.189,8.721-3.575c2.238-2.285,3.357-5,3.357-8.146V323.34C471.734,325.334,463.63,327.36,455.474,329.138z
		 M464.338,345.841c-2.619,0-2.619-4.069,0-4.069C466.958,341.771,466.958,345.841,464.338,345.841z M470.436,329.577
		c2.623,0,2.623,4.063,0,4.063S467.813,329.577,470.436,329.577z M471.451,352.951c-2.62,0-2.62-4.065,0-4.065
		C474.074,348.886,474.074,352.951,471.451,352.951z"/>
	<path style="fill:#BE894A;" d="M468.401,341.873c-0.131,0-0.131-0.201,0-0.201S468.532,341.873,468.401,341.873z"/>
	<path style="fill:#BE894A;" d="M381.484,333.97c-6.799-0.455-13.584-1.067-20.358-1.795v15.741c0,3.146,1.145,5.86,3.431,8.146
		c2.382,2.386,5.266,3.575,8.647,3.575h1.574c3.431,0,6.29-1.144,8.577-3.425c2.382-2.386,3.574-5.15,3.574-8.296v-13.631
		C385.115,334.188,383.301,334.09,381.484,333.97z M371.833,342.788c-2.623,0-2.623-4.063,0-4.063
		C374.454,338.725,374.454,342.788,371.833,342.788z M375.899,350.92c-2.623,0-2.623-4.068,0-4.068S378.521,350.92,375.899,350.92z
		 M380.98,346.852c-2.621,0-2.621-4.063,0-4.063C383.604,342.788,383.604,346.852,380.98,346.852z"/>
	<path style="fill:#C7B299;" d="M509.803,316.49c1.856-0.328,3.711-0.615,5.565-0.9v-4.269c0.953-2.429,3.266-4.356,6.935-5.787
		c4.193-1.621,8.388-1.405,12.579,0.646c1.906,0.904,3.456,2.712,4.646,5.43c0.234,0.479,0.416,0.986,0.606,1.487
		c8.438-0.379,16.904-0.245,25.406,0.387c-1.454-6.727-4.646-12.719-9.646-17.958c-7.004-7.337-15.533-11.007-25.588-11.007
		c-6.334,0-11.315,1.072-14.938,3.218v-20.8c0-3.383-1.214-6.288-3.644-8.72c-2.526-2.574-5.623-3.859-9.292-3.859h-0.215
		c-3.669,0-6.765,1.285-9.292,3.859c-2.43,2.432-3.645,5.337-3.645,8.72v53.873C496.088,319.212,502.917,317.711,509.803,316.49z"/>
	<path style="fill:#BE894A;" d="M565.588,313.67c-1.449-0.112-2.89-0.234-4.339-0.322c-7.04-0.408-14.056-0.397-21.038-0.073
		c0.817,2.247,1.248,4.709,1.248,7.413v0.855c0,5.146-1.362,9.508-4.077,13.081c-2.57,3.286-5.599,4.931-9.077,4.931
		c-2.189,0.336-4.36,0.146-6.504-0.568c-4.145-1.332-6.29-4.671-6.433-10.006V315.8c-5.396,0.833-10.776,1.829-16.139,2.99
		c-3.324,0.719-6.637,1.486-9.948,2.273v32.572c0,1.62,0.618,3.053,1.857,4.286c1.145,1.144,2.645,1.715,4.504,1.715h13.436
		c1.764,0,3.287-0.62,4.574-1.854c1.145-1.144,1.716-2.505,1.716-4.076v2.715c3.623,2.146,8.604,3.216,14.938,3.216
		c10.055,0,18.584-3.665,25.588-11.004c7.055-7.384,10.578-16.225,10.578-26.518C566.473,319.176,566.154,316.368,565.588,313.67z
		 M495.851,332.624c2.622,0,2.622,4.066,0,4.066C493.228,336.69,493.228,332.624,495.851,332.624z M498.897,355.999
		c-2.619,0-2.619-4.061,0-4.061C501.523,351.938,501.523,355.999,498.897,355.999z M506.014,328.562c-2.62,0-2.62-4.069,0-4.069
		C508.639,324.492,508.639,328.562,506.014,328.562z M510.079,342.788c-2.621,0-2.621-4.063,0-4.063
		C512.706,338.725,512.706,342.788,510.079,342.788z M532.444,348.886c-2.622,0-2.622-4.063,0-4.063
		C535.067,344.822,535.067,348.886,532.444,348.886z M545.658,348.886c-2.619,0-2.619-4.063,0-4.063
		C548.284,344.822,548.284,348.886,545.658,348.886z M546.674,337.708c-2.617,0-2.617-4.068,0-4.068
		C549.3,333.64,549.3,337.708,546.674,337.708z M550.74,321.444c-2.62,0-2.62-4.065,0-4.065
		C553.365,317.379,553.365,321.444,550.74,321.444z M561.923,332.624c-2.62,0-2.62-4.063,0-4.063
		C564.548,328.562,564.548,332.624,561.923,332.624z"/>
	<path style="fill:#BE894A;" d="M551.759,346.954c-0.134,0-0.134-0.201,0-0.201C551.889,346.753,551.889,346.954,551.759,346.954z"
		/>
	<path style="fill:#26120A;" d="M550.74,332.726c-0.131,0-0.131-0.202,0-0.202S550.871,332.726,550.74,332.726z"/>
	<path style="fill:#26120A;" d="M494.832,346.954c-0.132,0-0.132-0.201,0-0.201C494.963,346.753,494.963,346.954,494.832,346.954z"
		/>
	<path style="fill:#26120A;" d="M511.096,352.037c-0.131,0-0.131-0.202,0-0.202S511.227,352.037,511.096,352.037z"/>
	<path style="fill:#26120A;" d="M507.032,336.791c-0.134,0-0.134-0.205,0-0.205C507.161,336.586,507.161,336.791,507.032,336.791z"
		/>
	<path style="fill:#26120A;" d="M528.379,345.938c-0.132,0-0.132-0.201,0-0.201C528.509,345.737,528.509,345.938,528.379,345.938z"
		/>
	<path style="fill:#C7B299;" d="M589.417,286.234h-0.214c-3.813,0-7.052,1.334-9.721,4.003c-2.478,2.527-3.717,5.55-3.717,9.08
		v15.104c9.041,0.988,18.066,2.244,27.087,3.535v-18.639c0-3.53-1.308-6.602-3.928-9.222
		C596.348,287.525,593.181,286.234,589.417,286.234z"/>
	<path style="fill:#C7B299;" d="M588.987,282.661c3.911,0,7.173-1.31,9.793-3.93c2.718-2.717,4.072-5.907,4.072-9.577
		s-1.333-6.791-3.998-9.363c-2.675-2.718-5.956-4.076-9.867-4.076c-3.908,0-7.217,1.358-9.936,4.076
		c-2.619,2.572-3.93,5.693-3.93,9.363s1.311,6.813,3.93,9.434C581.771,281.305,585.079,282.661,588.987,282.661z"/>
	<path style="fill:#BE894A;" d="M575.766,314.601v31.962c0,3.57,1.285,6.645,3.858,9.216c2.574,2.571,5.766,3.858,9.579,3.858h0.214
		c3.764,0,6.959-1.328,9.576-4.003c2.576-2.475,3.859-5.501,3.859-9.071v-28.296C593.84,316.91,584.823,315.59,575.766,314.601z
		 M579.205,323.476c-2.623,0-2.623-4.065,0-4.065C581.83,319.41,581.83,323.476,579.205,323.476z M585.303,340.756
		c-2.623,0-2.623-4.065,0-4.065C587.928,336.69,587.928,340.756,585.303,340.756z M591.402,327.543c2.623,0,2.623,4.065,0,4.065
		S588.779,327.543,591.402,327.543z M594.453,346.852c-2.622,0-2.622-4.063,0-4.063
		C597.076,342.788,597.076,346.852,594.453,346.852z M594.453,326.527c-2.622,0-2.622-4.067,0-4.067
		C597.076,322.46,597.076,326.527,594.453,326.527z"/>
	<path style="fill:#BE894A;" d="M582.255,339.844c-0.13,0-0.13-0.204,0-0.204C582.386,339.64,582.386,339.844,582.255,339.844z"/>
	<path style="fill:#26120A;" d="M596.482,334.757c-0.132,0-0.132-0.202,0-0.202C596.615,334.555,596.615,334.757,596.482,334.757z"
		/>
	<path style="fill:#26120A;" d="M592.418,350.008c-0.133,0-0.133-0.205,0-0.205C592.553,349.803,592.553,350.008,592.418,350.008z"
		/>
	<path style="fill:#26120A;" d="M587.337,328.656c-0.134,0-0.134-0.199,0-0.199C587.467,328.457,587.467,328.656,587.337,328.656z"
		/>
	<path style="fill:#C7B299;" d="M638.449,322.616v-4.785l0.356-4.935c-0.141,2.336-0.166,3.289-0.07,2.859
		c0.525-2.859,2.813-5.529,6.86-8.007c4.436-2.718,8.648-3.097,12.652-1.145c3.908,1.907,5.861,6.623,5.861,14.157v3.42
		c8.529,0.114,17.08-0.277,25.662-1.345l-0.003-0.578c-0.049-11.433-2.931-20.773-8.647-28.018
		c-6.862-8.579-16.157-11.651-27.876-9.22c-2.386,0.478-7.22,2.858-14.51,7.147v2.715c0-2.288-0.812-4.24-2.433-5.861
		c-1.762-1.808-3.904-2.715-6.43-2.715h-8.225c-2.57,0-4.714,0.858-6.43,2.574c-1.716,1.713-2.571,3.742-2.571,6.073v24.401
		C621.242,320.576,629.838,321.733,638.449,322.616z"/>
	<path style="fill:#BE894A;" d="M689.771,322.978c-8.502,1.029-17.073,1.449-25.662,1.392v23.334c0,3.337,1.239,6.24,3.714,8.718
		c2.43,2.432,5.431,3.649,9.009,3.649h0.213c3.62,0,6.65-1.218,9.08-3.649c2.476-2.478,3.715-5.381,3.715-8.718L689.771,322.978z
		 M670.693,330.593c-2.622,0-2.622-4.065,0-4.065C673.319,326.527,673.319,330.593,670.693,330.593z M674.757,344.822
		c-2.616,0-2.616-4.066,0-4.066C677.381,340.756,677.381,344.822,674.757,344.822z M683.905,341.771c-2.62,0-2.62-4.063,0-4.063
		C686.53,337.708,686.53,341.771,683.905,341.771z"/>
	<path style="fill:#26120A;" d="M686.958,333.741c-0.134,0-0.134-0.202,0-0.202C687.088,333.539,687.088,333.741,686.958,333.741z"
		/>
	<path style="fill:#BE894A;" d="M622.898,321.175c-3.417-0.46-6.833-0.95-10.251-1.454v27.982c0,3.337,1.234,6.24,3.715,8.718
		c2.432,2.432,5.437,3.649,9.007,3.649h0.356c3.573,0,6.574-1.218,9.007-3.649c2.48-2.478,3.717-5.381,3.717-8.718v-24.736
		C633.25,322.466,628.063,321.863,622.898,321.175z M615.799,336.69c-2.622,0-2.622-4.066,0-4.066
		C618.422,332.624,618.422,336.69,615.799,336.69z M620.881,348.886c-2.62,0-2.62-4.063,0-4.063
		C623.509,344.822,623.509,348.886,620.881,348.886z M632.063,341.771c-2.617,0-2.617-4.063,0-4.063
		C634.686,337.708,634.686,341.771,632.063,341.771z"/>
	<path style="fill:#BE894A;" d="M626.981,343.909c-0.134,0-0.134-0.203,0-0.203C627.112,343.706,627.112,343.909,626.981,343.909z"
		/>
	<path style="fill:#26120A;" d="M618.849,330.691c-0.133,0-0.133-0.202,0-0.202C618.979,330.489,618.979,330.691,618.849,330.691z"
		/>
	<path style="fill:#C7B299;" d="M750.348,313.239c3.68,0.087,7.347,0.311,11.008,0.58c1.346-3.837,2.759-7.879,4.245-12.144
		c1.289-3.623,0.813-7.054-1.427-10.294c-2.334-3.285-5.623-4.932-9.861-4.932h-0.218c-2.62,0-5.027,0.787-7.22,2.361
		c-1.999,1.476-3.383,3.431-4.143,5.86c-2.281,7.506-4.193,13.813-5.743,18.977C741.423,313.274,745.887,313.133,750.348,313.239z"
		/>
	<path style="fill:#BE894A;" d="M736.901,313.941c-2.873,9.544-4.479,15.053-4.819,16.466l-5.036-15.262
		c-3.935,0.665-7.852,1.536-11.734,2.675c-3.701,1.089-7.43,2.02-11.174,2.813c6.483,15.376,10.343,26.236,11.577,32.573v0.283
		c0,7.531-1.978,12.248-5.936,14.157c-1.57,0.756-3.213,1.165-4.928,1.206c-2.86,0-5.268,1.031-7.221,3.08
		c-1.909,1.86-2.859,4.12-2.859,6.787v0.146c0,4.292,2.002,7.317,6.005,9.076c1.572,0.668,2.928,1.096,4.075,1.286
		c9.242,1.909,17.532,0.338,24.869-4.714c6.623-4.534,11.177-10.891,13.652-19.085c0.343-1.068,6.323-18.223,17.925-51.44
		C753.134,313.395,744.979,313.288,736.901,313.941z M699.706,379.069c-2.62,0-2.62-4.069,0-4.069
		C702.334,375,702.334,379.069,699.706,379.069z M709.32,379.38c-2.62,0-2.62-4.064,0-4.064
		C711.948,375.315,711.948,379.38,709.32,379.38z M713.264,383.132c-2.62,0-2.62-4.063,0-4.063S715.884,383.132,713.264,383.132z
		 M713.938,371.611c-2.622,0-2.622-4.063,0-4.063C716.563,367.549,716.563,371.611,713.938,371.611z M717.454,322.46
		c2.626,0,2.626,4.067,0,4.067C714.832,326.527,714.832,322.46,717.454,322.46z M720.499,344.822c-2.62,0-2.62-4.066,0-4.066
		C723.124,340.756,723.124,344.822,720.499,344.822z M724.571,363.115c-2.626,0-2.626-4.063,0-4.063
		C727.193,359.053,727.193,363.115,724.571,363.115z M730.666,379.38c-2.623,0-2.623-4.064,0-4.064
		C733.291,375.315,733.291,379.38,730.666,379.38z M735.75,338.725c2.625,0,2.625,4.063,0,4.063
		C733.13,342.788,733.13,338.725,735.75,338.725z M738.797,360.07c-2.619,0-2.619-4.071,0-4.071
		C741.423,355.999,741.423,360.07,738.797,360.07z M744.896,335.674c-2.617,0-2.617-4.065,0-4.065
		C747.523,331.608,747.523,335.674,744.896,335.674z M749.982,325.509c-2.622,0-2.622-4.064,0-4.064
		C752.607,321.444,752.607,325.509,749.982,325.509z"/>
	<path style="fill:#BE894A;" d="M746.93,326.624c-0.128,0-0.128-0.201,0-0.201C747.063,326.423,747.063,326.624,746.93,326.624z"/>
	<path style="fill:#26120A;" d="M727.618,367.29c-0.13,0-0.13-0.204,0-0.204C727.749,367.086,727.749,367.29,727.618,367.29z"/>
	<path style="fill:#26120A;" d="M732.703,345.938c-0.134,0-0.134-0.201,0-0.201C732.83,345.737,732.83,345.938,732.703,345.938z"/>
	<path style="fill:#26120A;" d="M715.42,331.707c-0.133,0-0.133-0.202,0-0.202C715.551,331.505,715.551,331.707,715.42,331.707z"/>
	<path style="fill:#C7B299;" d="M703.992,320.282c6.18-1.466,12.27-3.198,18.522-4.532c1.479-0.31,2.974-0.544,4.466-0.801
		l-6.765-20.493c-0.762-2.383-2.144-4.289-4.142-5.719c-2.1-1.522-4.485-2.288-7.152-2.288h-1.789
		c-4.382,0-7.737,1.789-10.073,5.362c-2.242,3.478-2.503,7.075-0.787,10.795C699.164,309.043,701.732,314.933,703.992,320.282z"/>
</g>
<g>
	<path style="fill-rule:evenodd;clip-rule:evenodd;fill:#C7B299;" d="M42.408,306.527c-0.339,1.045-0.575,2.11-0.866,3.166h14.059
		c0.384-0.631,0.76-1.271,1.187-1.893c2.453-3.566,5.346-6.627,9.262-8.453c2.495-1.16,5.086-1.848,7.809-2.107
		c6.167-0.59,11.909,0.88,17.368,3.806c2.453,1.315,4.739,2.913,6.709,4.921c1.177,1.193,2.089,2.677,2.957,4.153
		c0.091,0.158,0.125,0.385,0.423,0.438c0.723-1.25,1.547-2.471,2.44-3.63c1.571-2.033,3.607-3.489,5.707-4.83
		c3.986-2.549,8.306-4.191,12.931-4.767c6.516-0.822,12.675,0.276,18.028,4.551c2.81,2.238,4.894,5.178,6.759,8.283
		c4.666-0.104,9.336,0.03,14.006,0.226c-0.277-1.052-0.566-2.11-0.905-3.155c-0.305-0.944-0.296-1.591,0.302-2.454
		c3.25-4.703,4.261-10.188,4.579-15.824c0.201-3.624,0.236-7.271-0.333-10.878c-0.381-2.431-1.011-4.787-2.166-6.954
		c-0.539-1.013-1.378-1.492-2.486-1.364c-6.146,0.721-11.475,3.297-15.963,7.775c-0.521,0.52-0.971,1.375-1.554,1.489
		c-0.671,0.129-1.199-0.788-1.783-1.249c-3.287-2.631-6.858-4.749-10.639-6.488c-3.391-1.433-6.924-2.353-10.488-3.148
		c-1.394-0.127-2.781-0.319-4.176-0.358c-2.867-0.079-5.726,0.034-8.589,0.11c-4.391,0.114-8.782,0.127-13.174-0.083
		c-3.694-0.175-7.401-0.196-11.083,0.335c-1.202,0.279-2.406,0.558-3.605,0.839c-2.361,0.549-4.611,1.458-6.882,2.306
		c-4.307,1.963-8.323,4.445-11.95,7.595c-0.427,0.367-0.627,0.158-0.912-0.153c-0.821-0.895-1.638-1.792-2.565-2.574
		c-4.098-3.466-8.703-5.662-13.958-6.306c-1.757-0.214-2.497,0.119-3.303,1.792c-1.45,2.998-2.081,6.239-2.237,9.55
		c-0.2,4.215-0.188,8.441,0.515,12.628c0.701,4.176,1.933,8.121,4.434,11.525C42.553,305.742,42.55,306.096,42.408,306.527z
		 M148.125,283.653c2.274-2.012,4.85-3.276,7.797-3.694c0.851-0.118,1.44,0.182,1.82,1.006c0.547,1.188,0.961,2.438,1.064,3.737
		c0.088,1.138,0.348,2.268,0.252,2.998c-0.132,3.57-0.364,6.691-1.726,9.584c-0.121,0.256-0.184,0.64-0.482,0.681
		c-0.349,0.041-0.371-0.384-0.494-0.62c-1.648-3.162-3.426-6.236-5.535-9.083c-0.86-1.158-1.762-2.286-2.712-3.364
		C147.673,284.4,147.614,284.107,148.125,283.653z M43.821,283.798c0.208-1.056,0.522-2.086,1.028-3.032
		c0.317-0.596,0.772-0.932,1.175-0.853c3.409,0.386,6.117,1.712,8.469,3.885c0.379,0.351,0.318,0.595-0.004,0.956
		c-3.399,3.779-6.029,8.114-8.4,12.652c-0.113,0.215-0.13,0.573-0.438,0.559c-0.281-0.013-0.342-0.344-0.45-0.569
		c-0.84-1.77-1.337-3.657-1.546-5.613C43.376,289.12,43.307,286.448,43.821,283.798z"/>
	<path style="fill-rule:evenodd;clip-rule:evenodd;fill:#BE894A;" d="M161.272,314.193c-4.642-0.202-9.284-0.338-13.922-0.236
		c0.113,0.192,0.232,0.371,0.344,0.56c2.557,4.382,4.063,9.196,4.745,14.252c1.021,7.636,0.057,15.035-2.749,22.169
		c-1.695,4.307-3.9,8.242-7.208,11.444c-2.877,2.785-6.162,4.852-9.73,6.46c-4.495,2.012-9.233,3.081-14.055,3.68
		c-3.89,0.479-7.821,0.607-11.74,0.411c-2.481-0.125-4.964-0.548-7.445-0.316c-3.199,0.297-6.397,0.445-9.599,0.329
		c-6.176-0.197-12.255-1.066-18.1-3.256c-5.296-1.988-10.019-4.944-13.787-9.421c-2.427-2.887-4.054-6.257-5.411-9.796
		c-1.648-4.3-2.595-8.755-2.848-13.403c-0.466-8.583,1.369-16.454,5.654-23.581H41.466c-0.86,3.187-1.576,6.404-2.016,9.706
		c-0.731,5.487-1.128,10.979-0.724,16.524c0.306,4.165,1.03,8.23,2.295,12.183c2.465,7.698,6.68,14.094,12.998,18.84
		c8.425,6.321,18.047,8.21,28.141,8.051c2.982-0.051,5.972-0.129,8.956-0.243c4.174-0.164,8.354-0.013,12.53-0.087
		c6.878-0.112,13.75,0.495,20.632,0.241c5.581-0.187,11.001-1.219,16.2-3.397c7-2.921,12.687-7.604,16.81-14.255
		c4.315-6.954,6.191-14.734,6.579-22.934c0.19-4.023-0.024-8.037-0.479-12.051C162.931,322.048,162.278,318.076,161.272,314.193z"/>
	<path style="fill-rule:evenodd;clip-rule:evenodd;fill:#F0E3C9;" d="M130.388,271.838c-3.393-1.433-6.924-2.356-10.49-3.154
		c0.273-0.862,1.119-1.078,1.692-1.589c1.904-1.706,3.315-3.791,4.449-6.085c0.83-1.683,1.47-3.453,1.96-5.28
		c0.19-0.714-0.044-1.015-0.594-1.15c-2-0.498-3.767-1.503-5.437-2.707c-2.482-1.785-4.452-4.092-5.816-6.896
		c-0.79-1.613-0.548-4.06,0.706-5.422c1.436-1.559,3.514-1.955,5.413-1.202c1.348,0.531,1.998,1.698,2.693,2.849
		c0.856,1.42,2.055,2.426,3.422,3.24c0.519,0.31,0.682,0.184,0.7-0.452c0.058-2.022-0.437-3.941-0.899-5.867
		c-0.758-3.172-2.085-6.071-3.954-8.688c-0.5-0.705-1.069-1.354-1.604-2.031c-1.23-1.539-1.407-3.292-0.627-5.042
		c0.763-1.719,2.071-2.73,3.996-2.871c2.356-0.167,3.722,1.294,5.025,2.99c2.904,3.775,4.898,8.057,6.192,12.685
		c0.679,2.434,0.993,4.959,1.24,7.494c0.182,1.83,0.189,3.659,0.136,5.484c-0.087,2.935-0.501,5.832-1.167,8.686
		c-0.059,0.25-0.109,0.512-0.118,0.767c-0.01,0.329,0.076,0.483,0.448,0.305c3.18-1.51,5.577-3.703,6.329-7.509
		c0.561-2.865,4.123-4.422,6.565-2.963c2.125,1.272,2.966,3.254,2.442,5.775c-0.916,4.402-3.292,7.817-6.537,10.632
		c-2.965,2.576-6.449,3.966-10.152,4.79c-1.016,0.228-2.081,0.366-3.148,0.268c-0.384-0.037-0.696,0.025-0.962,0.41
		C131.689,270.175,131.025,270.997,130.388,271.838z"/>
	<path style="fill-rule:evenodd;clip-rule:evenodd;fill:#F0E3C9;" d="M82.876,268.691c-1.2,0.279-2.404,0.561-3.607,0.841
		c-2.358,0.553-4.612,1.455-6.879,2.308c-0.637-0.84-1.288-1.674-1.906-2.532c-0.21-0.285-0.421-0.431-0.775-0.419
		c-2.49,0.092-4.88-0.485-7.184-1.397c-5.724-2.269-10.048-6.093-12.282-12.261c-0.562-1.548-0.873-3.072-0.541-4.677
		c0.568-2.756,3.811-4.511,6.292-3.278c1.536,0.763,2.414,1.891,2.826,3.709c0.689,3.038,2.699,5.077,5.303,6.469
		c0.395,0.213,0.876,0.764,1.23,0.445c0.396-0.353-0.003-0.971-0.107-1.473c-0.406-1.971-0.673-3.966-0.911-5.97
		c-0.232-1.995-0.239-3.986-0.145-5.977c0.243-5.121,1.272-10.064,3.289-14.763c1.364-3.174,3.262-5.97,5.406-8.597
		c1.872-2.29,5.576-2.147,7.219,0.105c1.271,1.739,1.905,4.232-0.602,7.037c-1.508,1.689-2.622,3.638-3.511,5.735
		c-1.321,3.123-2.148,6.372-2.293,9.8c-0.041,0.846,0.182,1.002,0.864,0.557c1.279-0.833,2.498-1.749,3.238-3.157
		c1.119-2.126,2.651-3.37,5.092-3.206c2.102,0.146,3.966,2.203,4.131,4.406c0.164,2.154-0.903,3.67-1.999,5.22
		c-2.159,3.049-5.019,5.125-8.308,6.602c-0.683,0.305-1.782,0.045-1.974,0.958c-0.14,0.674,0.284,1.505,0.535,2.235
		c0.968,2.772,2.199,5.381,4.026,7.675c0.931,1.168,1.979,2.152,3.163,3.002C82.686,268.244,82.867,268.391,82.876,268.691z"/>
	<path style="fill-rule:evenodd;clip-rule:evenodd;fill:#F0E3C9;" d="M159.209,287.405c-0.135,3.572-0.366,6.69-1.727,9.583
		c-0.121,0.256-0.187,0.64-0.481,0.68c-0.348,0.044-0.371-0.384-0.498-0.62c-1.646-3.162-3.424-6.237-5.532-9.083
		c-0.859-1.156-1.763-2.285-2.711-3.364c-0.439-0.497-0.493-0.79,0.016-1.244c2.268-2.014,4.848-3.277,7.796-3.695
		c0.849-0.118,1.439,0.181,1.818,1.008c0.548,1.185,0.96,2.436,1.065,3.735C159.047,285.543,159.305,286.674,159.209,287.405z"/>
	<path style="fill-rule:evenodd;clip-rule:evenodd;fill:#F0E3C9;" d="M46.173,280.089c3.407,0.384,6.116,1.708,8.47,3.883
		c0.375,0.349,0.317,0.593-0.007,0.956c-3.396,3.774-6.029,8.116-8.399,12.65c-0.113,0.219-0.129,0.573-0.438,0.563
		c-0.281-0.014-0.344-0.344-0.451-0.573c-0.838-1.77-1.335-3.654-1.544-5.61c-0.28-2.669-0.347-5.336,0.167-7.985
		c0.207-1.059,0.519-2.085,1.028-3.032C45.318,280.345,45.771,280.006,46.173,280.089z"/>
</g>
</svg>
