<?xml version="1.0" encoding="iso-8859-1"?>
<!-- Generator: Adobe Illustrator 16.0.3, SVG Export Plug-In . SVG Version: 6.00 Build 0)  -->
<!DOCTYPE svg PUBLIC "-//W3C//DTD SVG 1.1//EN" "http://www.w3.org/Graphics/SVG/1.1/DTD/svg11.dtd">
<svg version="1.1" id="Layer_1" xmlns="http://www.w3.org/2000/svg" xmlns:xlink="http://www.w3.org/1999/xlink" x="0px" y="0px"
	 width="612px" height="792px" viewBox="0 0 612 792" style="enable-background:new 0 0 612 792;" xml:space="preserve">
<g>
	<g>
		<ellipse style="opacity:0.61;fill:#4A9D75;" cx="393.056" cy="658.349" rx="168.537" ry="17.479"/>
		<ellipse style="opacity:0.61;fill:#4A9D75;" cx="238.583" cy="683.298" rx="91.325" ry="17.283"/>
	</g>
	<g id="XMLID_68_">
		<g id="XMLID_94_">
			<g id="XMLID_105_">
				<path id="XMLID_115_" style="fill:#929293;" d="M231.646,686.73c-12.153-1.929-72.234-32.192-71.162-46.514
					c0.111-1.379,0.621-2.524,1.513-3.46c4.071-4.361,17.409-3.423,29.699-1.372c12.301,2.054,23.568,5.213,23.568,5.213
					l24.868,20.486c0,0,2.033,15.532-2.056,22.458C236.75,685.851,234.684,687.198,231.646,686.73z"/>
				<path id="XMLID_114_" style="fill:#32212D;" d="M231.646,686.73c-12.153-1.929-72.234-32.192-71.162-46.514
					c0.111-1.379,0.621-2.524,1.513-3.46c9.198,10.062,33.958,32.968,76.079,46.785C236.75,685.851,234.684,687.198,231.646,686.73z
					"/>
				<path id="XMLID_113_" style="fill:#32212D;" d="M209.536,650.646c0.575-4.636-0.989-8.951-3.066-12.999
					c-1.183-2.307-4.747-1.124-3.767,1.472c1.309,3.467,2.729,6.906,2.35,10.695C204.754,652.811,209.16,653.673,209.536,650.646z"
					/>
				<path id="XMLID_112_" style="fill:#32212D;" d="M201.843,648.416c-0.476-4.257-1.56-8.283-3.363-12.15
					c-1.186-2.547-5.105-1.12-4.01,1.573c1.445,3.542,2.387,7.202,2.772,11.021C197.555,651.935,202.189,651.491,201.843,648.416z"
					/>
				<path id="XMLID_107_" style="fill:#32212D;" d="M193.842,647.501c-0.434-4.338-1.206-9.514-3.59-13.207
					c-0.9-1.395-3.135-0.515-2.942,1.142c0.489,4.212,1.85,8.217,2.226,12.487C189.792,650.809,194.134,650.386,193.842,647.501z"/>
			</g>
			<path id="XMLID_96_" style="fill:#F69982;" d="M210.848,639.439c9.501,10.712,17.585,17.351,29.449,22.298
				c0,0,10.096-18.733,20.379-37.359c10.265-18.634,20.717-37.157,20.717-37.157l3.396-5.981l0.073-0.129l16.856-29.474
				l-40.5-24.207l-14.982,32.256l-0.109,0.207l-2.87,6.278c0,0-8.183,18.286-16.366,36.575
				C218.869,621.092,210.848,639.439,210.848,639.439z"/>
			<path id="XMLID_95_" style="fill:#DF4F67;" d="M246.126,559.893c12.362,8.037,25.275,15.173,38.662,21.347l0.073-0.129
				l16.856-29.474l-40.5-24.207l-14.982,32.256L246.126,559.893z"/>
		</g>
		<g id="XMLID_52_">
			<g id="XMLID_53_">
				<path id="XMLID_90_" style="fill:#929293;" d="M420.522,651.149c12.972,4.388,87.928,5.923,94.318-8.801
					c0.607-1.415,0.701-2.813,0.312-4.2c-1.749-6.415-15.374-12.435-28.56-16.8c-13.189-4.375-25.939-7.112-25.939-7.112
					l-35.157,7.266c0,0-10.076,14.238-9.649,23.18C415.955,647.642,417.287,650.039,420.522,651.149z"/>
				<path id="XMLID_73_" style="fill:#32212D;" d="M420.522,651.149c12.972,4.388,87.928,5.923,94.318-8.801
					c0.607-1.415,0.701-2.813,0.312-4.2c-14.301,5.139-50.61,14.827-99.306,6.533C415.955,647.642,417.287,650.039,420.522,651.149z
					"/>
				<path id="XMLID_62_" style="fill:#32212D;" d="M461.078,627.116c1.838-4.869,5.627-8.307,9.777-11.22
					c2.362-1.66,5.265,1.357,2.948,3.408c-3.096,2.739-6.279,5.391-7.873,9.321C464.661,631.735,459.876,630.296,461.078,627.116z"
					/>
				<path id="XMLID_55_" style="fill:#32212D;" d="M469.817,628.918c2.682-3.949,5.843-7.357,9.632-10.232
					c2.491-1.895,5.615,1.555,3.135,3.636c-3.265,2.743-6.093,5.863-8.463,9.425C472.214,634.614,467.878,631.767,469.817,628.918z"
					/>
				<path id="XMLID_54_" style="fill:#32212D;" d="M478.178,632.175c2.689-4.05,6.13-8.753,10.406-11.155
					c1.612-0.905,3.354,1.124,2.305,2.658c-2.665,3.898-6.097,7.141-8.686,11.153C480.454,637.543,476.393,634.868,478.178,632.175z
					"/>
			</g>
			<path id="XMLID_74_" style="fill:#F69982;" d="M465.608,615.391c-9.611,3.618-19.549,6.48-29.862,6.939
				c-2.433,0.108-4.867,0.096-7.299-0.027c-0.517-0.024-3.046,0.162-3.453-0.242c-0.09-0.09,0.028-0.513-0.006-0.633
				c-0.294-0.973-0.029-2.41-0.04-3.433c-0.027-2.336-0.055-4.67-0.08-7.006c-0.123-10.696-0.294-21.39-0.572-32.083
				c-0.143-5.48-0.104-11.043-0.554-16.51c-0.077-0.96-0.163-2.105-0.643-2.972c-0.514-0.925-1.656-1.483-2.226-1.862
				c-3.599-2.397-6.921-5.148-10.616-7.437c-4.1-2.544-8.325-4.922-12.674-7.013c7.828-15.649,15.664-31.381,22.576-47.463
				c14.812,8.686,29.791,19.376,40.419,33.068c3.065,3.952,5.77,8.311,7.412,13.057c1.89,5.466,1.493,11.222,1.286,16.91
				c-0.438,12.061-1.289,24.109-2.134,36.149C466.662,601.688,466.159,608.54,465.608,615.391z"/>
			<path id="XMLID_75_" style="fill:#DF4F67;" d="M453.194,520.464c-9.651,13.328-21.19,25.078-32.394,37.044l-0.067-0.059
				c0,0-1.003-0.829-2.84-2.194c-1.832-1.36-4.595-3.258-7.636-5.129c-3.012-1.88-6.273-3.702-8.701-4.994
				c-2.453-1.296-3.973-2.019-3.973-2.019s5.881-11.744,11.538-23.605c2.841-5.923,5.624-11.879,7.681-16.357
				c2.064-4.475,3.357-7.5,3.357-7.5s0.584,0.344,1.605,0.941c0.977,0.587,2.349,1.426,3.968,2.461
				c3.242,2.064,7.469,4.921,11.573,7.968c4.11,3.039,8.076,6.294,10.962,8.86c2.891,2.563,4.722,4.402,4.722,4.402L453.194,520.464
				z"/>
		</g>
		<g id="XMLID_48_">
			<path id="XMLID_51_" style="fill:#F69982;" d="M489.501,276.698c0,0-3.754-5.183-7.228-10.299
				c-3.443-5.157-6.644-10.302-4.381-11.661c2.232-1.386,5.848,0.417,8.832,2.693c2.988,2.262,5.358,5.009,5.358,5.009
				s-0.147-6.655,0.09-13.438c0.308-6.8,0.974-13.684,4.414-14.671c2.352-0.711,4.099,3.649,5,8.424
				c0.938,4.747,1.011,9.738,1.011,9.738s1.508-5.019,3.465-10.056c2-5.029,4.406-10.086,7.289-9.928
				c2.924,0.201,3.568,5.798,3.157,11.253c-0.372,5.468-1.748,10.775-1.748,10.775s2.925-4.357,6.128-8.682
				c3.227-4.28,6.764-8.663,8.731-7.614c3.544,1.948,2.796,7.826,0.95,12.986c-1.827,5.186-4.725,9.661-4.725,9.661
				s2.495-3.144,5.465-6.023c2.961-2.862,6.424-5.504,8.651-3.904c2.241,1.611,0.213,7.777-2.63,13.327
				c-2.81,5.574-6.442,10.499-6.442,10.499s0.097,3.391-1.091,7.424c-1.182,4.018-3.719,8.678-8.467,10.754
				c-4.75,2.094-11.848,0.03-18.113-3.533C496.956,285.855,491.331,280.939,489.501,276.698z"/>
			<path id="XMLID_50_" style="fill:#4A1813;" d="M493.928,262.445c2.907-1.107,6.273-1.208,9.288-0.153
				c0.783,0.275,1.534,0.627,2.243,1.048c2.022,1.203,3.709,2.973,4.748,5.12c0.26,0.535,0.044,1.19-0.483,1.457
				c-0.524,0.268-1.164,0.048-1.424-0.486c-0.869-1.775-2.258-3.271-3.932-4.286c-0.586-0.355-1.209-0.655-1.854-0.89
				c-2.479-0.899-5.333-0.847-7.76,0.056c-0.541,0.201-1.162-0.056-1.391-0.571C493.136,263.226,493.386,262.648,493.928,262.445z"
				/>
			<path id="XMLID_49_" style="fill:#F69982;" d="M409.125,326.938c-1.291,11.54-2.583,23.082-3.875,34.623
				c-0.182,1.631-0.364,3.264-0.548,4.895c21.87,1.375,44.547-1.188,64.953-9.517c25.387-10.361,41.451-36.027,50.526-60.733
				c0.256-0.697,1.355-2.819,0.942-3.323c-0.391-0.477-1.796-0.76-2.362-0.998c-3.384-1.429-6.764-2.858-10.15-4.287
				c-5.447-2.302-10.923-4.539-16.385-6.803c-5.432,13.225-12.891,26.492-24.065,35.705c-2.616,2.156-5.476,4.204-8.542,5.677
				c-3.117,1.499-6.626,2.314-9.982,3.071c-6.687,1.508-13.565,2.372-20.413,2.652C422.481,328.174,415.81,327.804,409.125,326.938z
				"/>
			<path id="XMLID_153_" style="fill:#DF4F67;" d="M409.125,326.938l-4.423,39.518c0,0,1.825,0.116,4.563,0.288
				c2.723,0.123,6.334,0.227,9.868,0.112c7.096-0.154,13.969-0.978,13.969-0.978l-3.341-38.003c0,0-5.283,0.263-10.463,0.023
				c-2.596-0.083-5.145-0.343-7.038-0.553C410.379,327.1,409.125,326.938,409.125,326.938z"/>
		</g>
		<g id="XMLID_47_">
			<path id="XMLID_175_" style="fill:#F69982;" d="M108.947,285.513c0,0-1.009-6.68-2.429-13.147
				c-1.399-6.551-3.3-12.715-6.015-12.139c-2.757,0.617-3.946,4.658-4.361,8.594c-0.438,3.952-0.041,7.708-0.041,7.708
				s-1.273-1.247-3.201-3.137c-1.913-1.902-4.601-4.277-7.313-6.687c-5.574-4.693-11.398-9.097-14.616-7.124
				c-2.2,1.303-0.026,5.742,3.052,9.808c1.5,2.054,3.203,3.984,4.535,5.397c1.323,1.42,2.257,2.345,2.257,2.345
				s-1.227-0.633-3.122-1.504c-1.909-0.854-4.445-2-7.083-3.031c-5.293-2.025-10.908-3.685-12.795-1.347
				c-1.891,2.404,1.992,6.786,6.445,10.3c2.222,1.767,4.563,3.364,6.377,4.46c1.801,1.12,3.037,1.812,3.037,1.812
				s-1.349-0.208-3.371-0.519c-2.04-0.277-4.769-0.631-7.534-0.927c-5.538-0.492-11.346-0.828-11.922,1.44
				c-0.499,2.032,0.49,3.908,2.261,5.596c1.77,1.638,4.294,3.038,6.874,4.156c2.587,1.072,5.214,1.877,7.189,2.409
				c1.975,0.531,3.319,0.747,3.319,0.747s-1.026-0.076-2.584-0.11c-1.545-0.061-3.622-0.095-5.738,0.038
				c-4.225,0.298-8.626,1.114-9.003,3.933c-0.366,2.833,5.591,5.526,11.612,7.23c3.014,0.844,6.007,1.539,8.278,1.937
				c2.272,0.395,3.783,0.593,3.783,0.593s2.31,2.46,5.889,4.508c3.62,1.95,8.505,3.471,13.352,1.665
				c4.905-1.896,8.993-8.377,11.412-15.498C109.897,297.912,110.721,290.178,108.947,285.513z"/>
			<path id="XMLID_177_" style="fill:#4A1813;" d="M94.748,277.898c-3.016,1.369-5.522,3.783-6.924,6.812
				c-0.362,0.784-0.645,1.603-0.845,2.442c-0.577,2.395-0.461,4.9,0.35,7.241c0.203,0.582,0.843,0.895,1.426,0.697
				c0.584-0.199,0.891-0.83,0.688-1.411c-0.672-1.93-0.771-4.056-0.308-6.041c0.163-0.697,0.392-1.377,0.687-2.027
				c1.135-2.504,3.264-4.596,5.75-5.715c0.554-0.25,0.815-0.9,0.587-1.453C95.932,277.892,95.303,277.649,94.748,277.898z"/>
			<path id="XMLID_179_" style="fill:#F69982;" d="M225.827,320.564l-3.201,41.326c0,0-6.634-0.936-13.269-1.872
				c-1.655-0.238-3.309-0.478-4.86-0.701c-1.551-0.222-2.961-0.577-4.188-0.809c-2.442-0.501-4.07-0.836-4.07-0.836
				s-1.67-0.346-4.59-0.95c-1.46-0.304-3.229-0.672-5.262-1.095c-2.023-0.443-4.258-1.104-6.718-1.738
				c-4.888-1.373-10.691-2.681-16.646-4.753c-2.999-0.976-6.098-1.983-9.246-3.006c-3.159-0.993-6.242-2.3-9.387-3.446
				c-3.121-1.208-6.278-2.323-9.306-3.594c-3.013-1.293-5.979-2.566-8.85-3.8c-1.435-0.616-2.845-1.224-4.223-1.817
				c-1.353-0.644-2.677-1.272-3.967-1.885c-2.574-1.229-5.007-2.392-7.253-3.467c-4.489-2.14-8.099-4.173-10.682-5.48
				c-2.564-1.345-4.028-2.114-4.028-2.114l13.791-29.87c0,0,1.38,0.676,3.853,1.739c2.473,1.061,5.958,2.675,10.209,4.433
				c8.535,3.433,19.959,7.905,31.667,11.312c2.925,0.856,5.813,1.835,8.712,2.574c2.9,0.729,5.755,1.445,8.515,2.139
				c5.489,1.521,10.73,2.332,15.165,3.257c2.225,0.418,4.252,0.875,6.066,1.155c1.819,0.247,3.404,0.463,4.709,0.641
				c2.607,0.356,4.097,0.561,4.097,0.561s1.434,0.197,3.583,0.49c1.076,0.129,2.323,0.368,3.673,0.463
				c1.348,0.096,2.787,0.199,4.226,0.303C220.088,320.142,225.827,320.564,225.827,320.564z"/>
			<path id="XMLID_180_" style="fill:#DF4F67;" d="M225.827,320.564l-3.201,41.326c0,0-6.634-0.936-13.269-1.872
				c-1.655-0.238-3.309-0.478-4.86-0.701c-1.551-0.222-2.961-0.577-4.188-0.809c-2.442-0.501-4.07-0.836-4.07-0.836l6.628-39.207
				c0,0,1.434,0.197,3.583,0.49c1.076,0.129,2.323,0.368,3.673,0.463c1.348,0.096,2.787,0.199,4.226,0.303
				C220.088,320.142,225.827,320.564,225.827,320.564z"/>
		</g>
		<path id="XMLID_71_" style="fill:#522A68;" d="M240.11,543.998c19.216,14.065,44.047,21.624,72.603,24.85l29.863-40.392
			l35.941,26.625l7.514,5.573c20.672-8.668,41.517-31.605,62.395-57.121l-9.021-6.594l-41.446-30.316l-4.895-3.562l-123.419,12.966
			l-0.787,1.786L240.11,543.998z"/>
		<path id="XMLID_65_" style="fill:#321544;" d="M268.858,477.813c16.07,4.021,81.865,17.876,129.101-11.19l-4.895-3.562
			l-123.419,12.966L268.858,477.813z"/>
		<g id="XMLID_57_">
			<g id="XMLID_56_">
				<g id="XMLID_46_">
					<path style="fill:#321544;" d="M342.435,527.332c0.579-0.105,0.986-0.642,0.919-1.238l-6.965-62.262
						c-0.068-0.621-0.626-1.067-1.251-0.997c-0.673,0.074-1.067,0.632-0.996,1.25l6.964,62.262c0.068,0.62,0.627,1.066,1.251,0.998
						C342.383,527.342,342.411,527.338,342.435,527.332z"/>
				</g>
				<g id="XMLID_45_">
					<path style="fill:#321544;" d="M339.03,507.88c0.359-0.066,0.696-0.145,1.003-0.231c0.604-0.174,0.945-0.799,0.777-1.397
						c-0.17-0.602-0.841-0.931-1.396-0.778c-0.311,0.088-7.428,2.013-9.345-4.417c-2.198-7.387-3.545-36.716-3.558-37.014
						c-0.029-0.621-0.557-1.104-1.183-1.078c-0.604,0.02-1.106,0.555-1.078,1.184c0.056,1.215,1.375,29.902,3.654,37.552
						C329.758,507.925,335.511,508.526,339.03,507.88z"/>
				</g>
			</g>
			<g id="XMLID_59_">
				<path style="fill:#321544;" d="M266.653,496.959c1.404-0.258,2.747-0.836,4.016-1.733c8.457-5.979,10.848-24.342,10.946-25.119
					c0.077-0.62-0.364-1.186-0.983-1.265c-0.613-0.07-1.184,0.363-1.263,0.983c-0.022,0.179-2.362,18.153-10.006,23.555
					c-1.918,1.354-3.955,1.771-6.237,1.272c-0.615-0.138-1.214,0.251-1.345,0.862c-0.135,0.609,0.253,1.212,0.863,1.345
					C264.027,497.162,265.367,497.195,266.653,496.959z"/>
			</g>
			<g id="XMLID_63_">
				<path style="fill:#321544;" d="M405.289,478.818c1.271-0.233,2.483-0.73,3.638-1.489c0.521-0.345,0.666-1.048,0.323-1.568
					c-0.345-0.523-1.043-0.659-1.568-0.322c-2.108,1.392-4.44,1.635-7.119,0.734c-8.38-2.823-16.697-15.83-17.362-17.517
					c-0.098-0.5-0.522-0.89-1.053-0.917c-0.63-0.025-1.153,0.449-1.188,1.071c-0.076,1.489,7.894,13.567,15.833,18.113
					C399.837,478.666,402.681,479.299,405.289,478.818z"/>
			</g>
		</g>
		<path id="XMLID_127_" style="fill:#E8B414;" d="M268.237,450.067l1.408,25.96c37.194,5.65,78.808,0.146,123.419-12.966
			l-13.82-50.771l-6.329-23.29l46.457-0.109l-0.229-67.604l-34.826-1.708l-155.985-7.647l-20.587-1.02l1.232,65.128l55.653,7.447
			L268.237,450.067z"/>
		<path id="XMLID_66_" style="fill:#D59F16;" d="M228.333,311.934c11.982,13.329,43.1,32.913,85.757,35.955
			c36.988,2.646,59.838-16.542,70.228-28.308L228.333,311.934z"/>
		<g id="XMLID_70_">
			<path id="XMLID_69_" style="fill:#E8B414;" d="M316.696,343.867c-1.398-1.453,27.104-6.91,32.779,2.463
				c0,0,1.667-31.958-9.915-36.771c-11.583-4.813-17.792,7.174-17.792,7.174L316.696,343.867z"/>
			<path id="XMLID_64_" style="fill:#E8B414;" d="M313.158,343.761c0,0-8.751-30.125-10.813-30.624
				c-2.065-0.496-16.92,0.045-19.968,5.148c-3.046,5.101-3.769,28.346-3.769,28.346S294.413,337.207,313.158,343.761z"/>
			<path id="XMLID_44_" style="fill:#DF4F67;" d="M338.212,316.368c0,0-9.472,25.445-21.516,27.499
				c-12.042,2.053-26.641-22.484-26.641-22.484L338.212,316.368z"/>
		</g>
		<g id="XMLID_15_">
			<g id="XMLID_38_">
				<path id="XMLID_43_" style="fill:#F69982;" d="M197.558,271.705c0.566,10.783,10.677,20.116,22.582,20.845
					c11.904,0.731,21.096-7.418,20.53-18.201c-0.567-10.783-10.678-20.115-22.582-20.845
					C206.183,252.773,196.991,260.922,197.558,271.705z"/>
				<g id="XMLID_39_">
					
						<path id="XMLID_42_" style="fill:none;stroke:#4A1813;stroke-width:1.166;stroke-linecap:round;stroke-linejoin:round;stroke-miterlimit:10;" d="
						M232.294,279.803c-1.02-1.314-7.634-19.194-25.201-8.066"/>
					
						<path id="XMLID_41_" style="fill:none;stroke:#4A1813;stroke-width:1.166;stroke-linecap:round;stroke-linejoin:round;stroke-miterlimit:10;" d="
						M215.105,282.385c0,0,1.833-11.543,10.87-11.214"/>
				</g>
			</g>
			<path id="XMLID_37_" style="fill:#F69982;" d="M212.759,219.067c-3.486-55.517,40.776-102.998,97.44-102.365
				c47.669,0.534,88.229,36.712,94.24,84.002c1.785,14.044,0.489,27.676-3.331,40.269c-3.005,9.904-3.573,20.33-2.711,30.642
				c1.561,18.637-9.194,49.591-82.419,54.176c-74.5,4.667-89.325-21.311-89.871-40.048c-0.378-12.951-2.378-25.831-7.057-37.915
				C215.574,238.849,213.395,229.19,212.759,219.067z"/>
			<path id="XMLID_36_" style="fill:#DF4F67;" d="M396.508,256.324c0,0-29.173-48.135-27.411-73.344
				c0,0-79.273,22.154-129.286,8.933c0,0-18.634,37.709-20.76,55.917c0,0-19.805-71.396,4.372-86.517
				c24.175-15.12,136.421-29.332,146.314-18.885C379.63,152.875,411.547,227.571,396.508,256.324z"/>
			<path id="XMLID_35_" style="fill:#32212D;" d="M221.353,254.551c-1.646-13.955,10.49-73.95,10.49-73.95
				c101.184,6.841,146.753-12.365,146.753-12.365c-6.637,41.689,19.513,91.39,19.513,91.39
				c44.989-80.306-5.526-106.206-5.526-106.206s0.042-15.651-10.25-29.87c-12.837-17.746-41.717-33.239-106.816-13.376
				c-64.353,19.64-74.411,61.201-70.347,94.708C208.489,232.433,221.353,254.551,221.353,254.551z"/>
			<path id="XMLID_34_" style="opacity:0.35;fill:#B15941;" d="M205.169,204.882c7.039-27.977,28.075-57.138,85.28-80.215
				c47.089-18.998,76.223-10.662,91.883-1.117c-12.837-17.746-41.717-33.239-106.816-13.376
				C211.163,129.814,201.105,171.375,205.169,204.882z"/>
			<g id="XMLID_19_">
				<path id="XMLID_33_" style="fill:#4A1813;" d="M287.343,311.358c3.961,4.082,10.514,6.776,20.781,5.497
					c11.161-1.374,16.551-6.271,18.625-11.837c2.52-6.669,0.29-14.282-2.396-17.849c-1.108-1.523-2.328-2.307-3.279-1.959
					c-4.079,1.483-32.177,5.965-35.745,5.251c-0.609-0.121-1.181,0.176-1.656,0.801
					C281.287,294.213,280.854,304.652,287.343,311.358z"/>
				<path id="XMLID_29_" style="fill:#BD6455;" d="M287.343,311.358c3.961,4.082,10.514,6.776,20.781,5.497
					c11.161-1.374,16.551-6.271,18.625-11.837c-5.493-3.396-11.57-5.53-17.688-5.606c-7.585-0.083-15.216,3.179-20.128,9.584
					C288.367,309.734,287.827,310.529,287.343,311.358z"/>
				<path id="XMLID_17_" style="fill:#FFFFFF;" d="M283.672,291.262c1.239,1.186,2.84,1.938,4.405,2.437
					c3.461,1.091,7.068,1.317,10.638,1.388c5.775,0.121,11.635-0.172,17.05-2.256c3.152-1.222,6.146-3.126,8.587-5.663
					c-1.108-1.523-2.328-2.307-3.279-1.959c-4.079,1.483-32.177,5.965-35.745,5.251C284.72,290.34,284.147,290.637,283.672,291.262z
					"/>
			</g>
			<g id="XMLID_20_">
				<path id="XMLID_21_" style="fill:#F69982;" d="M429.13,274.408c-3.511,10.21-15.798,16.403-27.445,13.832
					c-11.645-2.571-18.24-12.934-14.73-23.146c3.51-10.211,15.798-16.404,27.444-13.831
					C426.046,253.835,432.641,264.197,429.13,274.408z"/>
				<g id="XMLID_22_">
					
						<path id="XMLID_28_" style="fill:none;stroke:#4A1813;stroke-width:1.166;stroke-linecap:round;stroke-linejoin:round;stroke-miterlimit:10;" d="
						M396.594,270.364c1.341-0.983,12.63-12.389,24.5,0.585"/>
					
						<path id="XMLID_30_" style="fill:none;stroke:#4A1813;stroke-width:1.166;stroke-linecap:round;stroke-linejoin:round;stroke-miterlimit:10;" d="
						M410.489,278.799c0,0,1.994-10.891-6.786-13.062"/>
				</g>
			</g>
			
				<path id="XMLID_58_" style="fill:none;stroke:#4A1813;stroke-width:1.166;stroke-linecap:round;stroke-linejoin:round;stroke-miterlimit:10;" d="
				M299.168,263.543l-0.726,10.914c0,0-7.242-1.091-8.377,2.266c-1.136,3.359,5.967,5.444,5.967,5.444"/>
			<g>
				<path style="fill:#DD541B;" d="M241.618,249.207c0,0,10.02-24.089,31.075-13.296
					C272.693,235.911,247.517,208.938,241.618,249.207z"/>
			</g>
			<g>
				<path style="fill:#DD541B;" d="M322.463,234.539c0,0,21.004-15.477,33.481,4.624
					C355.944,239.163,348.275,203.073,322.463,234.539z"/>
			</g>
			<g>
				<g>
					<g>
						<g>
							<g>
								<path style="fill:#0C112F;" d="M272.413,263.197c-1.046,1.093-6.484-5.967-15.311-5.789
									c-8.11,0.162-12.874,6.308-13.769,5.336c-1.181-1.282,4.82-14.495,14.775-14.349
									C268.037,248.542,273.697,261.855,272.413,263.197z"/>
							</g>
						</g>
					</g>
					<g>
						<g>
							<g>
								<path style="fill:#0C112F;" d="M352.745,258.985c-1.046,1.092-6.485-5.966-15.312-5.79
									c-8.11,0.162-12.873,6.31-13.771,5.338c-1.179-1.283,4.822-14.497,14.777-14.35
									C348.37,244.329,354.029,257.644,352.745,258.985z"/>
							</g>
						</g>
					</g>
				</g>
			</g>
			<g id="XMLID_24_">
				<g>
					<g id="XMLID_87_">
						<path style="fill:#522A68;" d="M239.809,293.152c-8.277-4.751-14.206-12.442-16.699-21.654
							c-2.49-9.213-1.246-18.842,3.505-27.117c4.75-8.277,12.442-14.207,21.654-16.699c9.215-2.485,18.84-1.248,27.117,3.506
							c8.276,4.75,14.207,12.441,16.699,21.653c2.49,9.211,1.245,18.843-3.505,27.117c-4.75,8.277-12.441,14.206-21.654,16.699
							c-0.971,0.261-1.944,0.483-2.924,0.663C255.699,298.847,247.212,297.403,239.809,293.152z M249.448,232.051
							c-16.605,4.49-26.463,21.659-21.97,38.267c4.489,16.61,21.63,26.468,38.267,21.971c16.606-4.49,26.465-21.659,21.971-38.269
							c-4.263-15.767-19.951-25.447-35.741-22.543C251.132,231.633,250.29,231.824,249.448,232.051z"/>
					</g>
					<g id="XMLID_86_">
						<path style="fill:#522A68;" d="M329.538,289.485c-8.272-4.751-14.206-12.44-16.699-21.653l0,0
							c-2.49-9.212-1.247-18.843,3.506-27.117c4.753-8.278,12.443-14.207,21.655-16.7c18.998-5.124,38.67,6.141,43.814,25.158
							c2.492,9.213,1.248,18.844-3.502,27.117c-4.754,8.279-12.446,14.208-21.658,16.701c-0.971,0.262-1.946,0.483-2.927,0.663
							C345.428,295.182,336.941,293.736,329.538,289.485z M339.181,228.384c-8.045,2.175-14.762,7.356-18.915,14.583
							c-4.148,7.227-5.237,15.638-3.059,23.685l0,0c4.494,16.609,21.645,26.482,38.268,21.971
							c8.046-2.174,14.762-7.355,18.913-14.583c4.149-7.227,5.237-15.64,3.062-23.686c-4.268-15.766-19.954-25.448-35.742-22.543
							C340.863,227.967,340.022,228.156,339.181,228.384z"/>
					</g>
					<g id="XMLID_85_">
						<path style="fill:#522A68;" d="M313.021,248.423l3.079-3.313c-0.124-0.115-12.322-11.193-29.3,1.625l2.728,3.611
							C303.37,239.89,312.632,248.073,313.021,248.423z"/>
					</g>
					<g id="XMLID_84_">
						
							<rect x="389.008" y="239.495" transform="matrix(-0.2412 0.9705 -0.9705 -0.2412 729.8477 -67.3913)" style="fill:#522A68;" width="4.522" height="24.267"/>
					</g>
				</g>
			</g>
		</g>
		<path id="XMLID_60_" style="fill:#321544;" d="M318.196,561.419l-5.489,7.426c0,0-27.957,5.641-72.588-24.855l3.756-8.644
			C248.09,541.145,295.847,563.833,318.196,561.419z"/>
		<path id="XMLID_67_" style="fill:#321544;" d="M378.518,555.081l7.514,5.573c20.672-8.668,41.517-31.605,62.395-57.121
			l-9.021-6.594C429.021,510.267,401.717,543.393,378.518,555.081z"/>
		<path id="XMLID_108_" style="fill:#D59F16;" d="M264.135,381.114c1.575-12.935,3.174-25.434-0.49-38.218
			c-0.147-0.52,0.724-0.811,0.911-0.298c4.563,12.497,4.422,25.767,1.661,38.698C265.943,382.569,263.968,382.487,264.135,381.114z"
			/>
		<path id="XMLID_109_" style="fill:#D59F16;" d="M252.397,343.458c3.99,9.747,6.977,20.237,8.306,30.696
			c0.136,1.071-1.419,1.366-1.656,0.304c-2.297-10.327-4.623-20.534-7.443-30.74C251.478,343.261,252.217,343.02,252.397,343.458z"
			/>
		<path id="XMLID_110_" style="fill:#D59F16;" d="M372.577,337.769c0.221-0.887,1.701-0.559,1.569,0.347
			c-2.1,14.223-3.407,27.311-0.511,41.606c0.354,1.748-2.403,2.26-2.727,0.502C368.253,365.891,369.059,351.874,372.577,337.769z"/>
		<path id="XMLID_111_" style="fill:#D59F16;" d="M359.667,354.814c-0.009-0.245,0.343-0.224,0.4-0.019
			c2.396,8.767,5.385,17.093,8.942,25.441c0.531,1.249-1.205,2.062-1.881,0.91C362.474,373.208,359.927,363.962,359.667,354.814z"/>
		<path id="XMLID_124_" style="fill:#D59F16;" d="M269.646,476.027c37.194,5.65,78.808,0.146,123.419-12.966l-13.82-50.771
			c-13.271,17.366-34.318,27.727-55.42,33.513c-18.182,4.988-37.032,6.366-55.587,4.264L269.646,476.027z"/>
	</g>
</g>
</svg>
