<?xml version="1.0" encoding="iso-8859-1"?>
<!-- Generator: Adobe Illustrator 16.0.3, SVG Export Plug-In . SVG Version: 6.00 Build 0)  -->
<!DOCTYPE svg PUBLIC "-//W3C//DTD SVG 1.1//EN" "http://www.w3.org/Graphics/SVG/1.1/DTD/svg11.dtd">
<svg version="1.1" id="Layer_1" xmlns="http://www.w3.org/2000/svg" xmlns:xlink="http://www.w3.org/1999/xlink" x="0px" y="0px"
	 width="612px" height="792px" viewBox="0 0 612 792" style="enable-background:new 0 0 612 792;" xml:space="preserve">
<g>
	<path style="fill:#26120B;" d="M48.598,396.495v-1.336c0.943-2.408,3.231-4.318,6.866-5.735c4.152-1.603,8.307-1.39,12.459,0.639
		c1.887,0.896,3.422,2.689,4.602,5.379c0.059,0.124,0.099,0.258,0.156,0.382c8.745,0.489,17.37,1.633,25.951,3.157
		c-1.243-7.349-4.528-13.845-9.896-19.467c-6.938-7.267-15.386-10.902-25.343-10.902c-6.277,0-11.21,1.062-14.795,3.186v-20.6
		c0-3.351-1.204-6.23-3.61-8.637c-2.502-2.548-5.569-3.823-9.204-3.823h-0.211c-3.635,0-6.702,1.274-9.203,3.823
		c-2.407,2.407-3.61,5.286-3.61,8.637v51.211C31.097,399.49,39.753,397.535,48.598,396.495z"/>
	<path style="fill:#BE894A;" d="M98.646,399.085c-0.83-0.143-1.655-0.3-2.485-0.437c-7.719-1.27-15.548-2.193-23.396-2.621
		c1.099,2.5,1.672,5.293,1.672,8.404v0.85c0,5.097-1.345,9.416-4.036,12.955c-2.548,3.256-5.545,4.884-8.99,4.884
		c-2.171,0.331-4.318,0.142-6.442-0.565c-4.105-1.318-6.229-4.625-6.371-9.91v-16.084c-2.265,0.253-4.523,0.565-6.774,0.951
		c-6.539,1.11-12.906,2.771-19.065,4.961v34.592c0,1.604,0.612,3.021,1.84,4.249c1.132,1.132,2.62,1.697,4.46,1.697h13.309
		c1.745,0,3.256-0.613,4.531-1.84c1.133-1.133,1.699-2.479,1.699-4.035v2.69c3.585,2.125,8.518,3.185,14.795,3.185
		c9.957,0,18.405-3.632,25.343-10.901c6.984-7.313,10.478-16.068,10.478-26.264C99.214,403.514,99.009,401.268,98.646,399.085z
		 M27.338,408.202c-2.597,0-2.597-4.027,0-4.027C29.934,404.175,29.934,408.202,27.338,408.202z M32.372,414.242
		c2.596,0,2.596,4.028,0,4.028C29.775,418.271,29.775,414.242,32.372,414.242z M35.392,436.388c-2.596,0-2.596-4.026,0-4.026
		C37.989,432.361,37.989,436.388,35.392,436.388z M41.433,403.167c2.597,0,2.597,4.027,0,4.027
		C38.837,407.194,38.837,403.167,41.433,403.167z M43.447,424.308c-2.597,0-2.597-4.025,0-4.025S46.043,424.308,43.447,424.308z
		 M54.521,435.381c-2.597,0-2.597-4.026,0-4.026S57.118,435.381,54.521,435.381z M73.651,432.361c-2.596,0-2.596-4.024,0-4.024
		C76.248,428.337,76.248,432.361,73.651,432.361z M78.685,419.278c-2.596,0-2.596-4.029,0-4.029
		C81.282,415.249,81.282,419.278,78.685,419.278z M81.706,401.154c2.596,0,2.596,4.027,0,4.027
		C79.109,405.182,79.109,401.154,81.706,401.154z M83.719,427.33c-2.596,0-2.596-4.027,0-4.027
		C86.316,423.303,86.316,427.33,83.719,427.33z M86.739,418.271c-2.596,0-2.596-4.028,0-4.028
		C89.336,414.242,89.336,418.271,86.739,418.271z"/>
	<path style="fill:#BE894A;" d="M70.631,429.444c-0.13,0-0.13-0.2,0-0.2C70.76,429.244,70.76,429.444,70.631,429.444z"/>
	<path style="fill:#26120B;" d="M34.385,428.438c-0.13,0-0.13-0.201,0-0.201C34.515,428.237,34.515,428.438,34.385,428.438z"/>
	<path style="fill:#26120B;" d="M33.379,413.334c-0.13,0-0.13-0.201,0-0.201C33.509,413.133,33.509,413.334,33.379,413.334z"/>
	<path style="fill:#26120B;" d="M131.707,405.281v-0.85c0-3.35,0.613-6.346,1.841-8.991c1.179-2.69,2.736-4.482,4.672-5.379
		c4.152-2.029,8.306-2.242,12.459-0.639c3.635,1.417,5.899,3.328,6.796,5.735v15.335c1.029,0.174,2.057,0.366,3.087,0.532
		c7.584,1.242,15.194,2.375,22.823,3.354v-33.875c0-2.594-0.991-4.886-2.974-6.867c-1.887-1.887-4.271-2.832-7.15-2.832h-5.805
		c-2.832,0-5.192,0.945-7.081,2.832c-1.935,1.937-2.901,4.201-2.901,6.795v-8.211c-1.039-2.407-5.946-3.611-14.724-3.611
		c-9.958,0-18.406,3.635-25.345,10.902c-5.764,6.038-9.111,13.089-10.118,21.118c0.693,0.142,1.387,0.289,2.081,0.433
		c7.462,1.471,14.904,3.079,22.352,4.655C131.719,405.57,131.707,405.428,131.707,405.281z"/>
	<path style="fill:#BE894A;" d="M157.475,410.708v1.937c-0.142,5.238-2.242,8.564-6.3,9.98c-2.124,0.661-4.272,0.826-6.442,0.495
		c-3.494,0-6.513-1.628-9.062-4.884c-2.566-3.435-3.874-7.612-3.95-12.513c-6.252-1.255-12.496-2.548-18.727-3.894
		c-1.209-0.263-2.417-0.516-3.625-0.767c-0.695-0.134-1.39-0.269-2.084-0.402c-0.21,1.692-0.355,3.408-0.355,5.185
		c0,10.195,3.492,18.951,10.476,26.264c6.938,7.27,15.386,10.901,25.345,10.901c3.115,0,7.337-1.722,12.672-5.168
		c0.802-0.565,1.674-0.778,2.619-0.636c0.943,0.095,1.792,0.542,2.548,1.344c2.785,2.975,5.167,4.46,7.15,4.46h9.345
		c1.792,0,3.302-0.613,4.531-1.84c1.179-1.133,1.77-2.502,1.77-4.106v-22.487C174.722,413.473,166.086,412.168,157.475,410.708z
		 M113.924,419.278c-2.597,0-2.597-4.029,0-4.029C116.52,415.249,116.52,419.278,113.924,419.278z M116.944,409.207
		c-2.596,0-2.596-4.025,0-4.025C119.541,405.182,119.541,409.207,116.944,409.207z M123.992,413.236c2.597,0,2.597,4.026,0,4.026
		S121.395,413.236,123.992,413.236z M127.012,432.361c-2.597,0-2.597-4.024,0-4.024
		C129.609,428.337,129.609,432.361,127.012,432.361z M140.101,427.33c2.596,0,2.596,4.024,0,4.024
		C137.504,431.354,137.504,427.33,140.101,427.33z M143.121,440.415c-2.597,0-2.597-4.027,0-4.027S145.718,440.415,143.121,440.415z
		 M164.264,434.376c-2.595,0-2.595-4.028,0-4.028C166.861,430.348,166.861,434.376,164.264,434.376z M167.285,421.29
		c-2.597,0-2.597-4.027,0-4.027C169.882,417.263,169.882,421.29,167.285,421.29z M178.36,434.376c-2.597,0-2.597-4.028,0-4.028
		S180.957,434.376,178.36,434.376z"/>
	<path style="fill:#BE894A;" d="M173.326,433.472c-0.13,0-0.13-0.202,0-0.202C173.456,433.27,173.456,433.472,173.326,433.472z"/>
	<path style="fill:#26120B;" d="M171.312,422.396c-0.13,0-0.13-0.201,0-0.201C171.441,422.195,171.441,422.396,171.312,422.396z"/>
	<path style="fill:#26120B;" d="M134.06,431.457c-0.13,0-0.13-0.201,0-0.201C134.189,431.256,134.189,431.457,134.06,431.457z"/>
	<path style="fill:#26120B;" d="M219.489,417.691v-17.365c0-3.068,1.015-5.709,3.043-7.929c1.981-2.169,4.341-3.303,7.08-3.397
		c2.877-0.095,5.38,0.896,7.504,2.973c2.169,2.123,3.257,4.743,3.257,7.857v18.447c4.135-0.012,8.265-0.101,12.378-0.386
		c4.578-0.318,9.134-0.837,13.672-1.477v-16.089c0-3.068,1.016-5.709,3.045-7.929c1.982-2.169,4.342-3.303,7.079-3.397
		c2.926-0.095,5.427,0.896,7.503,2.973c2.219,2.123,3.329,4.743,3.329,7.857v12.72c8.073-1.788,16.104-3.786,24.138-5.753v-1.231
		c-0.046-11.373-2.926-20.625-8.636-27.751c-6.796-8.541-15.999-11.585-27.608-9.133c-3.972,0.813-9.366,4.486-16.141,10.953
		c-6.424-9.949-16.044-13.637-28.883-11.023c-3.114,0.662-5.971,2.125-8.566,4.389c-0.533,0.446-1.373,1.239-2.496,2.357
		c-0.402-0.988-1.005-1.893-1.822-2.709c-1.746-1.794-3.87-2.691-6.37-2.691h-8.213c-2.548,0-4.697,0.897-6.442,2.691
		c-1.605,1.603-2.408,3.539-2.408,5.803v37.172C202.431,416.547,210.952,417.252,219.489,417.691z M219.772,375.478v2.973
		c0-0.955-0.175-1.838-0.462-2.676C219.461,375.677,219.578,375.609,219.772,375.478z"/>
	<path style="fill:#BE894A;" d="M240.373,418.372V431.4c0,3.115,1.179,5.854,3.54,8.214c2.264,2.265,5.096,3.396,8.494,3.396h2.053
		c3.352,0,6.207-1.179,8.566-3.538c2.266-2.266,3.398-4.957,3.398-8.072v-14.809C257.761,417.738,249.078,418.266,240.373,418.372z
		 M246.823,437.396c-2.597,0-2.597-4.027,0-4.027C249.419,433.368,249.419,437.396,246.823,437.396z M247.832,423.303
		c-2.599,0-2.599-4.024,0-4.024C250.427,419.278,250.427,423.303,247.832,423.303z M256.892,437.396c-2.597,0-2.597-4.027,0-4.027
		C259.487,433.368,259.487,437.396,256.892,437.396z"/>
	<path style="fill:#BE894A;" d="M257.899,427.433c-0.129,0-0.129-0.202,0-0.202C258.027,427.23,258.027,427.433,257.899,427.433z"/>
	<path style="fill:#BE894A;" d="M287.379,412.804V431.4c0,3.115,1.108,5.807,3.327,8.072c2.359,2.359,5.237,3.538,8.637,3.538h0.21
		c3.399,0,6.278-1.179,8.637-3.538c2.219-2.266,3.327-4.957,3.327-8.072v-24.34C303.482,409.035,295.457,411.041,287.379,412.804z
		 M296.156,429.343c-2.595,0-2.595-4.028,0-4.028C298.753,425.314,298.753,429.343,296.156,429.343z M302.198,413.236
		c2.596,0,2.596,4.026,0,4.026C299.601,417.263,299.601,413.236,302.198,413.236z M303.204,436.388c-2.595,0-2.595-4.026,0-4.026
		C305.801,432.361,305.801,436.388,303.204,436.388z"/>
	<path style="fill:#BE894A;" d="M300.183,425.417c-0.13,0-0.13-0.199,0-0.199S300.313,425.417,300.183,425.417z"/>
	<path style="fill:#BE894A;" d="M214.097,417.588c-6.734-0.448-13.455-1.058-20.165-1.778V431.4c0,3.115,1.134,5.807,3.398,8.072
		c2.359,2.359,5.215,3.538,8.566,3.538h1.558c3.398,0,6.229-1.132,8.495-3.396c2.359-2.36,3.54-5.099,3.54-8.214v-13.5
		C217.691,417.804,215.896,417.708,214.097,417.588z M204.536,426.322c-2.596,0-2.596-4.024,0-4.024
		C207.133,422.298,207.133,426.322,204.536,426.322z M208.564,434.376c-2.597,0-2.597-4.028,0-4.028
		C211.161,430.348,211.161,434.376,208.564,434.376z M213.598,430.348c-2.597,0-2.597-4.025,0-4.025
		C216.196,426.322,216.196,430.348,213.598,430.348z"/>
	<path style="fill:#26120B;" d="M341.187,400.275c1.841-0.327,3.677-0.608,5.515-0.893v-4.224c0.943-2.408,3.233-4.318,6.866-5.735
		c4.153-1.603,8.307-1.39,12.459,0.639c1.89,0.896,3.423,2.689,4.603,5.379c0.232,0.477,0.413,0.975,0.601,1.475
		c8.357-0.376,16.743-0.242,25.164,0.38c-1.44-6.659-4.603-12.595-9.554-17.783c-6.938-7.267-15.386-10.902-25.344-10.902
		c-6.275,0-11.207,1.062-14.795,3.186v-20.6c0-3.351-1.202-6.23-3.61-8.637c-2.502-2.548-5.569-3.823-9.202-3.823h-0.214
		c-3.633,0-6.7,1.274-9.203,3.823c-2.406,2.407-3.609,5.286-3.609,8.637v53.358C327.602,402.971,334.368,401.484,341.187,400.275z"
		/>
	<path style="fill:#BE894A;" d="M396.439,397.48c-1.436-0.11-2.862-0.232-4.297-0.316c-6.974-0.407-13.92-0.395-20.837-0.072
		c0.81,2.225,1.234,4.664,1.234,7.34v0.85c0,5.097-1.346,9.416-4.036,12.955c-2.547,3.256-5.546,4.884-8.99,4.884
		c-2.171,0.331-4.318,0.142-6.442-0.565c-4.105-1.318-6.229-4.625-6.37-9.91v-13.056c-5.346,0.828-10.673,1.816-15.983,2.964
		c-3.295,0.713-6.576,1.475-9.855,2.252v32.26c0,1.604,0.613,3.021,1.841,4.249c1.132,1.132,2.618,1.697,4.459,1.697h13.309
		c1.747,0,3.256-0.613,4.531-1.84c1.133-1.133,1.699-2.479,1.699-4.035v2.69c3.588,2.125,8.52,3.185,14.795,3.185
		c9.958,0,18.406-3.632,25.344-10.901c6.985-7.313,10.478-16.068,10.478-26.264C397.317,402.936,397.002,400.154,396.439,397.48z
		 M327.367,416.256c2.599,0,2.599,4.026,0,4.026C324.771,420.282,324.771,416.256,327.367,416.256z M330.388,439.408
		c-2.596,0-2.596-4.027,0-4.027C332.988,435.381,332.988,439.408,330.388,439.408z M337.435,412.229c-2.596,0-2.596-4.027,0-4.027
		C340.035,408.202,340.035,412.229,337.435,412.229z M341.463,426.322c-2.597,0-2.597-4.024,0-4.024
		C344.063,422.298,344.063,426.322,341.463,426.322z M363.612,432.361c-2.597,0-2.597-4.024,0-4.024
		C366.212,428.337,366.212,432.361,363.612,432.361z M376.7,432.361c-2.596,0-2.596-4.024,0-4.024
		C379.301,428.337,379.301,432.361,376.7,432.361z M377.708,421.29c-2.596,0-2.596-4.027,0-4.027
		C380.309,417.263,380.309,421.29,377.708,421.29z M381.734,405.182c-2.596,0-2.596-4.027,0-4.027
		C384.335,401.154,384.335,405.182,381.734,405.182z M392.81,416.256c-2.595,0-2.595-4.026,0-4.026
		C395.409,412.229,395.409,416.256,392.81,416.256z"/>
	<path style="fill:#BE894A;" d="M382.742,430.449c-0.13,0-0.13-0.199,0-0.199S382.872,430.449,382.742,430.449z"/>
	<path style="fill:#26120B;" d="M381.734,416.355c-0.129,0-0.129-0.201,0-0.201C381.864,416.154,381.864,416.355,381.734,416.355z"
		/>
	<path style="fill:#26120B;" d="M326.36,430.449c-0.13,0-0.13-0.199,0-0.199S326.49,430.449,326.36,430.449z"/>
	<path style="fill:#26120B;" d="M342.469,435.483c-0.13,0-0.13-0.199,0-0.199S342.599,435.483,342.469,435.483z"/>
	<path style="fill:#26120B;" d="M338.442,420.381c-0.13,0-0.13-0.2,0-0.2C338.573,420.181,338.573,420.381,338.442,420.381z"/>
	<path style="fill:#26120B;" d="M359.584,429.444c-0.129,0-0.129-0.2,0-0.2C359.714,429.244,359.714,429.444,359.584,429.444z"/>
	<path style="fill:#26120B;" d="M420.041,370.31h-0.213c-3.774,0-6.982,1.321-9.627,3.965c-2.454,2.501-3.683,5.497-3.683,8.989
		v14.963c8.956,0.979,17.896,2.219,26.832,3.5v-18.463c0-3.492-1.299-6.537-3.896-9.132
		C426.908,371.585,423.77,370.31,420.041,370.31z"/>
	<path style="fill:#26120B;" d="M419.616,366.771c3.87,0,7.103-1.298,9.698-3.893c2.691-2.69,4.036-5.852,4.036-9.486
		c0-3.634-1.323-6.726-3.965-9.274c-2.644-2.69-5.899-4.035-9.77-4.035c-3.871,0-7.149,1.345-9.84,4.035
		c-2.596,2.548-3.894,5.64-3.894,9.274c0,3.634,1.298,6.749,3.894,9.344C412.467,365.426,415.745,366.771,419.616,366.771z"/>
	<path style="fill:#BE894A;" d="M406.519,398.402v31.655c0,3.538,1.276,6.582,3.823,9.13c2.55,2.549,5.712,3.823,9.486,3.823h0.213
		c3.729,0,6.892-1.319,9.487-3.965c2.548-2.453,3.822-5.45,3.822-8.988v-28.024C424.421,400.693,415.491,399.383,406.519,398.402z
		 M409.925,407.194c-2.596,0-2.596-4.027,0-4.027C412.525,403.167,412.525,407.194,409.925,407.194z M415.967,424.308
		c-2.597,0-2.597-4.025,0-4.025C418.566,420.282,418.566,424.308,415.967,424.308z M422.007,411.222c2.601,0,2.601,4.027,0,4.027
		C419.412,415.249,419.412,411.222,422.007,411.222z M425.028,430.348c-2.596,0-2.596-4.025,0-4.025
		C427.626,426.322,427.626,430.348,425.028,430.348z M425.028,410.215c-2.596,0-2.596-4.027,0-4.027
		C427.626,406.188,427.626,410.215,425.028,410.215z"/>
	<path style="fill:#BE894A;" d="M412.946,423.404c-0.13,0-0.13-0.201,0-0.201S413.076,423.404,412.946,423.404z"/>
	<path style="fill:#26120B;" d="M427.04,418.368c-0.13,0-0.13-0.2,0-0.2S427.17,418.368,427.04,418.368z"/>
	<path style="fill:#26120B;" d="M423.015,433.472c-0.131,0-0.131-0.202,0-0.202C423.145,433.27,423.145,433.472,423.015,433.472z"/>
	<path style="fill:#26120B;" d="M417.98,412.326c-0.13,0-0.13-0.198,0-0.198S418.11,412.326,417.98,412.326z"/>
	<path style="fill:#26120B;" d="M468.605,406.343v-4.742l0.354-4.885c-0.144,2.312-0.166,3.257-0.071,2.832
		c0.52-2.832,2.785-5.474,6.796-7.929c4.39-2.69,8.565-3.067,12.531-1.132c3.869,1.887,5.804,6.56,5.804,14.018v3.39
		c8.448,0.113,16.919-0.275,25.417-1.332l-0.002-0.571c-0.048-11.327-2.903-20.578-8.567-27.751
		c-6.796-8.495-15.998-11.54-27.609-9.132c-2.359,0.472-7.149,2.831-14.369,7.079v2.69c0-2.266-0.804-4.2-2.407-5.804
		c-1.747-1.794-3.869-2.69-6.372-2.69h-8.141c-2.548,0-4.672,0.85-6.371,2.548c-1.699,1.698-2.547,3.706-2.547,6.017v24.167
		C451.563,404.322,460.077,405.469,468.605,406.343z"/>
	<path style="fill:#BE894A;" d="M519.436,406.703c-8.423,1.019-16.91,1.435-25.417,1.377v23.109c0,3.304,1.228,6.183,3.682,8.637
		c2.405,2.406,5.379,3.609,8.92,3.609h0.21c3.589,0,6.586-1.203,8.991-3.609c2.454-2.454,3.682-5.333,3.682-8.637L519.436,406.703z
		 M500.54,414.242c-2.598,0-2.598-4.027,0-4.027S503.138,414.242,500.54,414.242z M504.566,428.337c-2.595,0-2.595-4.029,0-4.029
		C507.166,424.308,507.166,428.337,504.566,428.337z M513.628,425.314c-2.597,0-2.597-4.024,0-4.024
		C516.228,421.29,516.228,425.314,513.628,425.314z"/>
	<path style="fill:#26120B;" d="M516.648,417.361c-0.13,0-0.13-0.201,0-0.201S516.778,417.361,516.648,417.361z"/>
	<path style="fill:#BE894A;" d="M453.203,404.914c-3.386-0.453-6.77-0.939-10.153-1.438v27.713c0,3.304,1.225,6.183,3.68,8.637
		c2.407,2.406,5.38,3.609,8.921,3.609h0.352c3.54,0,6.513-1.203,8.922-3.609c2.454-2.454,3.682-5.333,3.682-8.637v-24.498
		C463.456,406.195,458.314,405.598,453.203,404.914z M446.17,420.282c-2.595,0-2.595-4.026,0-4.026
		C448.771,416.256,448.771,420.282,446.17,420.282z M451.204,432.361c-2.595,0-2.595-4.024,0-4.024
		C453.806,428.337,453.806,432.361,451.204,432.361z M462.279,425.314c-2.596,0-2.596-4.024,0-4.024
		C464.879,421.29,464.879,425.314,462.279,425.314z"/>
	<path style="fill:#BE894A;" d="M457.246,427.433c-0.131,0-0.131-0.202,0-0.202C457.376,427.23,457.376,427.433,457.246,427.433z"/>
	<path style="fill:#26120B;" d="M449.192,414.342c-0.131,0-0.131-0.201,0-0.201C449.322,414.141,449.322,414.342,449.192,414.342z"
		/>
	<path style="fill:#26120B;" d="M579.433,397.057c3.646,0.084,7.276,0.305,10.906,0.573c1.328-3.802,2.728-7.803,4.203-12.029
		c1.275-3.585,0.802-6.984-1.415-10.193c-2.313-3.256-5.568-4.885-9.769-4.885h-0.214c-2.596,0-4.979,0.779-7.149,2.336
		c-1.981,1.464-3.351,3.399-4.105,5.805c-2.258,7.435-4.149,13.681-5.688,18.797C570.595,397.092,575.012,396.951,579.433,397.057z"
		/>
	<path style="fill:#BE894A;" d="M566.114,397.75c-2.843,9.453-4.436,14.908-4.773,16.31l-4.987-15.116
		c-3.897,0.656-7.774,1.522-11.622,2.65c-3.664,1.076-7.358,2-11.065,2.785c6.42,15.228,10.244,25.988,11.464,32.261v0.284
		c0,7.455-1.959,12.129-5.875,14.018c-1.558,0.754-3.187,1.155-4.884,1.201c-2.833,0-5.217,1.017-7.151,3.045
		c-1.889,1.841-2.832,4.082-2.832,6.725v0.142c0,4.252,1.982,7.25,5.947,8.994c1.559,0.662,2.9,1.087,4.036,1.275
		c9.155,1.888,17.366,0.33,24.634-4.672c6.559-4.487,11.067-10.788,13.521-18.904c0.337-1.055,6.261-18.05,17.752-50.946
		C582.193,397.21,574.12,397.102,566.114,397.75z M529.277,462.256c-2.596,0-2.596-4.028,0-4.028
		C531.877,458.228,531.877,462.256,529.277,462.256z M538.797,462.565c-2.595,0-2.595-4.026,0-4.026
		C541.397,458.539,541.397,462.565,538.797,462.565z M542.703,466.283c-2.599,0-2.599-4.027,0-4.027
		C545.3,462.256,545.3,466.283,542.703,466.283z M543.373,454.872c-2.597,0-2.597-4.027,0-4.027
		C545.972,450.845,545.972,454.872,543.373,454.872z M546.853,406.188c2.6,0,2.6,4.027,0,4.027
		C544.258,410.215,544.258,406.188,546.853,406.188z M549.873,428.337c-2.597,0-2.597-4.029,0-4.029
		C552.472,424.308,552.472,428.337,549.873,428.337z M553.9,446.455c-2.596,0-2.596-4.025,0-4.025
		C556.498,442.43,556.498,446.455,553.9,446.455z M559.942,462.565c-2.599,0-2.599-4.026,0-4.026
		C562.54,458.539,562.54,462.565,559.942,462.565z M564.977,422.298c2.598,0,2.598,4.024,0,4.024S562.379,422.298,564.977,422.298z
		 M567.995,443.436c-2.596,0-2.596-4.027,0-4.027C570.595,439.408,570.595,443.436,567.995,443.436z M574.036,419.278
		c-2.596,0-2.596-4.029,0-4.029C576.636,415.249,576.636,419.278,574.036,419.278z M579.07,409.207c-2.596,0-2.596-4.025,0-4.025
		C581.67,405.182,581.67,409.207,579.07,409.207z"/>
	<path style="fill:#BE894A;" d="M576.05,410.313c-0.13,0-0.13-0.2,0-0.2S576.18,410.313,576.05,410.313z"/>
	<path style="fill:#26120B;" d="M556.92,450.586c-0.13,0-0.13-0.201,0-0.201C557.051,450.385,557.051,450.586,556.92,450.586z"/>
	<path style="fill:#26120B;" d="M561.954,429.444c-0.13,0-0.13-0.2,0-0.2S562.084,429.444,561.954,429.444z"/>
	<path style="fill:#26120B;" d="M544.839,415.348c-0.13,0-0.13-0.201,0-0.201C544.968,415.146,544.968,415.348,544.839,415.348z"/>
	<path style="fill:#26120B;" d="M533.523,404.033c6.117-1.453,12.148-3.172,18.344-4.488c1.467-0.31,2.946-0.543,4.421-0.794
		l-6.698-20.3c-0.755-2.359-2.124-4.247-4.105-5.663c-2.076-1.51-4.438-2.266-7.081-2.266h-1.769c-4.341,0-7.669,1.77-9.981,5.31
		c-2.218,3.445-2.478,7.009-0.778,10.69C528.738,392.899,531.282,398.73,533.523,404.033z"/>
</g>
</svg>
