<?xml version="1.0" encoding="iso-8859-1"?>
<!-- Generator: Adobe Illustrator 16.0.3, SVG Export Plug-In . SVG Version: 6.00 Build 0)  -->
<!DOCTYPE svg PUBLIC "-//W3C//DTD SVG 1.1//EN" "http://www.w3.org/Graphics/SVG/1.1/DTD/svg11.dtd">
<svg version="1.1" id="Layer_1" xmlns="http://www.w3.org/2000/svg" xmlns:xlink="http://www.w3.org/1999/xlink" x="0px" y="0px"
	 width="792px" height="612px" viewBox="0 0 792 612" style="enable-background:new 0 0 792 612;" xml:space="preserve">
<g>
	<path style="fill:#26120B;" d="M198.597,303.689v-1.417c1-2.553,3.427-4.579,7.28-6.081c4.403-1.7,8.808-1.474,13.211,0.677
		c2.001,0.95,3.628,2.851,4.879,5.703c0.063,0.132,0.105,0.273,0.166,0.405c9.272,0.519,18.418,1.731,27.516,3.349
		c-1.318-7.793-4.801-14.681-10.492-20.643c-7.356-7.705-16.315-11.56-26.872-11.56c-6.656,0-11.887,1.126-15.688,3.377v-21.843
		c0-3.553-1.276-6.606-3.828-9.158c-2.653-2.702-5.905-4.053-9.759-4.053h-0.224c-3.854,0-7.106,1.351-9.758,4.053
		c-2.552,2.552-3.828,5.605-3.828,9.158v54.301C180.04,306.866,189.218,304.793,198.597,303.689z"/>
	<path style="fill:#BE894A;" d="M251.665,306.437c-0.88-0.151-1.755-0.317-2.635-0.463c-8.185-1.347-16.486-2.325-24.808-2.779
		c1.165,2.651,1.773,5.612,1.773,8.911v0.9c0,5.405-1.426,9.984-4.279,13.737c-2.702,3.452-5.88,5.179-9.532,5.179
		c-2.302,0.351-4.579,0.15-6.831-0.6c-4.354-1.397-6.605-4.904-6.755-10.508V303.76c-2.401,0.269-4.796,0.6-7.183,1.008
		c-6.933,1.178-13.685,2.939-20.215,5.261v36.679c0,1.702,0.649,3.204,1.951,4.506c1.201,1.2,2.777,1.8,4.729,1.8h14.112
		c1.851,0,3.453-0.65,4.804-1.951c1.202-1.201,1.802-2.628,1.802-4.278v2.853c3.802,2.253,9.032,3.377,15.688,3.377
		c10.557,0,19.516-3.852,26.872-11.56c7.406-7.754,11.109-17.037,11.109-27.848C252.267,311.133,252.05,308.75,251.665,306.437z
		 M176.054,316.104c-2.754,0-2.754-4.271,0-4.271C178.807,311.833,178.807,316.104,176.054,316.104z M181.392,322.508
		c2.752,0,2.752,4.271,0,4.271C178.639,326.779,178.639,322.508,181.392,322.508z M184.594,345.99c-2.752,0-2.752-4.27,0-4.27
		C187.348,341.721,187.348,345.99,184.594,345.99z M191,310.765c2.753,0,2.753,4.271,0,4.271
		C188.247,315.035,188.247,310.765,191,310.765z M193.135,333.181c-2.753,0-2.753-4.268,0-4.268S195.889,333.181,193.135,333.181z
		 M204.878,344.923c-2.753,0-2.753-4.27,0-4.27S207.631,344.923,204.878,344.923z M225.162,341.721c-2.753,0-2.753-4.268,0-4.268
		C227.915,337.453,227.915,341.721,225.162,341.721z M230.5,327.848c-2.752,0-2.752-4.271,0-4.271
		C233.253,323.576,233.253,327.848,230.5,327.848z M233.703,308.631c2.752,0,2.752,4.271,0,4.271
		C230.949,312.901,230.949,308.631,233.703,308.631z M235.837,336.386c-2.753,0-2.753-4.271,0-4.271
		C238.591,332.115,238.591,336.386,235.837,336.386z M239.04,326.779c-2.753,0-2.753-4.271,0-4.271
		C241.793,322.508,241.793,326.779,239.04,326.779z"/>
	<path style="fill:#BE894A;" d="M221.959,338.628c-0.138,0-0.138-0.213,0-0.213C222.097,338.415,222.097,338.628,221.959,338.628z"
		/>
	<path style="fill:#26120B;" d="M183.527,337.561c-0.138,0-0.138-0.213,0-0.213C183.665,337.348,183.665,337.561,183.527,337.561z"
		/>
	<path style="fill:#26120B;" d="M182.46,321.545c-0.138,0-0.138-0.213,0-0.213C182.598,321.332,182.598,321.545,182.46,321.545z"/>
	<path style="fill:#26120B;" d="M286.721,313.006v-0.9c0-3.552,0.65-6.729,1.952-9.533c1.25-2.852,2.901-4.753,4.954-5.703
		c4.403-2.151,8.807-2.377,13.211-0.677c3.854,1.502,6.255,3.528,7.206,6.081v16.261c1.091,0.184,2.181,0.388,3.273,0.564
		c8.042,1.316,16.11,2.518,24.2,3.556v-35.92c0-2.75-1.051-5.18-3.153-7.281c-2.001-2-4.529-3.002-7.582-3.002h-6.155
		c-3.002,0-5.506,1.002-7.508,3.002c-2.052,2.053-3.077,4.455-3.077,7.206v-8.707c-1.101-2.552-6.305-3.829-15.613-3.829
		c-10.559,0-19.517,3.854-26.874,11.56c-6.112,6.402-9.661,13.879-10.729,22.393c0.735,0.149,1.471,0.306,2.206,0.458
		c7.913,1.56,15.803,3.266,23.701,4.936C286.733,313.313,286.721,313.162,286.721,313.006z"/>
	<path style="fill:#BE894A;" d="M314.044,318.761v2.054c-0.15,5.554-2.377,9.081-6.68,10.582c-2.252,0.701-4.53,0.876-6.832,0.525
		c-3.704,0-6.905-1.727-9.608-5.179c-2.721-3.642-4.108-8.071-4.188-13.268c-6.629-1.33-13.25-2.702-19.857-4.129
		c-1.282-0.278-2.563-0.546-3.844-0.813c-0.737-0.143-1.474-0.284-2.209-0.427c-0.223,1.795-0.376,3.614-0.376,5.498
		c0,10.811,3.702,20.094,11.108,27.848c7.357,7.708,16.314,11.56,26.874,11.56c3.303,0,7.78-1.826,13.437-5.479
		c0.851-0.6,1.775-0.826,2.777-0.675c1,0.101,1.901,0.575,2.702,1.425c2.953,3.154,5.479,4.729,7.582,4.729h9.909
		c1.9,0,3.501-0.65,4.804-1.951c1.25-1.201,1.876-2.652,1.876-4.354v-23.844C332.332,321.692,323.174,320.309,314.044,318.761z
		 M267.865,327.848c-2.753,0-2.753-4.271,0-4.271C270.617,323.576,270.617,327.848,267.865,327.848z M271.067,317.169
		c-2.752,0-2.752-4.268,0-4.268C273.82,312.901,273.82,317.169,271.067,317.169z M278.54,321.441c2.753,0,2.753,4.27,0,4.27
		S275.787,321.441,278.54,321.441z M281.743,341.721c-2.753,0-2.753-4.268,0-4.268S284.497,341.721,281.743,341.721z
		 M295.622,336.386c2.752,0,2.752,4.268,0,4.268C292.868,340.653,292.868,336.386,295.622,336.386z M298.824,350.261
		c-2.753,0-2.753-4.271,0-4.271S301.577,350.261,298.824,350.261z M321.242,343.856c-2.752,0-2.752-4.271,0-4.271
		C323.996,339.585,323.996,343.856,321.242,343.856z M324.446,329.981c-2.754,0-2.754-4.271,0-4.271
		C327.199,325.711,327.199,329.981,324.446,329.981z M336.189,343.856c-2.754,0-2.754-4.271,0-4.271
		S338.943,343.856,336.189,343.856z"/>
	<path style="fill:#BE894A;" d="M330.851,342.897c-0.138,0-0.138-0.214,0-0.214C330.989,342.684,330.989,342.897,330.851,342.897z"
		/>
	<path style="fill:#26120B;" d="M328.716,331.154c-0.138,0-0.138-0.213,0-0.213C328.853,330.941,328.853,331.154,328.716,331.154z"
		/>
	<path style="fill:#26120B;" d="M289.216,340.762c-0.138,0-0.138-0.213,0-0.213C289.353,340.549,289.353,340.762,289.216,340.762z"
		/>
	<path style="fill:#26120B;" d="M379.8,326.165v-18.412c0-3.254,1.076-6.054,3.227-8.408c2.101-2.3,4.603-3.502,7.507-3.603
		c3.05-0.1,5.705,0.951,7.957,3.153c2.3,2.251,3.453,5.029,3.453,8.332v19.561c4.385-0.013,8.764-0.107,13.125-0.409
		c4.854-0.338,9.686-0.888,14.497-1.565v-17.06c0-3.254,1.077-6.054,3.229-8.408c2.102-2.3,4.604-3.502,7.506-3.603
		c3.103-0.1,5.754,0.951,7.956,3.153c2.353,2.251,3.529,5.029,3.529,8.332v13.487c8.561-1.896,17.075-4.015,25.594-6.1v-1.307
		c-0.048-12.059-3.102-21.869-9.156-29.425c-7.206-9.057-16.964-12.285-29.274-9.684c-4.212,0.862-9.931,4.757-17.114,11.614
		c-6.812-10.549-17.013-14.459-30.626-11.688c-3.302,0.702-6.331,2.252-9.083,4.653c-0.565,0.473-1.456,1.313-2.647,2.499
		c-0.426-1.048-1.065-2.007-1.932-2.873c-1.851-1.902-4.103-2.853-6.754-2.853h-8.708c-2.702,0-4.981,0.951-6.831,2.853
		c-1.702,1.7-2.553,3.752-2.553,6.154v39.416C361.713,324.952,370.748,325.699,379.8,326.165z M380.1,281.404v3.153
		c0-1.012-0.186-1.949-0.49-2.837C379.771,281.616,379.894,281.543,380.1,281.404z"/>
	<path style="fill:#BE894A;" d="M401.943,326.887v13.815c0,3.303,1.25,6.206,3.754,8.709c2.4,2.401,5.403,3.602,9.006,3.602h2.177
		c3.554,0,6.581-1.25,9.083-3.752c2.402-2.402,3.603-5.256,3.603-8.559V325C420.381,326.215,411.174,326.774,401.943,326.887z
		 M408.783,347.059c-2.754,0-2.754-4.271,0-4.271C411.536,342.788,411.536,347.059,408.783,347.059z M409.853,332.115
		c-2.756,0-2.756-4.268,0-4.268C412.604,327.848,412.604,332.115,409.853,332.115z M419.46,347.059c-2.754,0-2.754-4.271,0-4.271
		C422.212,342.788,422.212,347.059,419.46,347.059z"/>
	<path style="fill:#BE894A;" d="M420.527,336.494c-0.137,0-0.137-0.214,0-0.214C420.663,336.28,420.663,336.494,420.527,336.494z"/>
	<path style="fill:#BE894A;" d="M451.786,320.982v19.72c0,3.303,1.175,6.156,3.527,8.559c2.502,2.502,5.554,3.752,9.158,3.752h0.223
		c3.604,0,6.656-1.25,9.158-3.752c2.353-2.402,3.527-5.256,3.527-8.559v-25.81C468.861,316.987,460.352,319.114,451.786,320.982z
		 M461.093,338.52c-2.752,0-2.752-4.271,0-4.271C463.847,334.249,463.847,338.52,461.093,338.52z M467.499,321.441
		c2.753,0,2.753,4.27,0,4.27S464.746,321.441,467.499,321.441z M468.566,345.99c-2.752,0-2.752-4.27,0-4.27
		C471.319,341.721,471.319,345.99,468.566,345.99z"/>
	<path style="fill:#BE894A;" d="M465.362,334.357c-0.138,0-0.138-0.212,0-0.212S465.5,334.357,465.362,334.357z"/>
	<path style="fill:#BE894A;" d="M374.082,326.056c-7.141-0.476-14.267-1.121-21.381-1.886v16.532c0,3.303,1.203,6.156,3.604,8.559
		c2.502,2.502,5.53,3.752,9.083,3.752h1.652c3.603,0,6.605-1.2,9.008-3.602c2.502-2.503,3.753-5.406,3.753-8.709v-14.315
		C377.894,326.284,375.99,326.183,374.082,326.056z M363.945,335.317c-2.752,0-2.752-4.268,0-4.268
		C366.698,331.05,366.698,335.317,363.945,335.317z M368.216,343.856c-2.753,0-2.753-4.271,0-4.271S370.969,343.856,368.216,343.856
		z M373.553,339.585c-2.753,0-2.753-4.268,0-4.268C376.308,335.317,376.308,339.585,373.553,339.585z"/>
	<path style="fill:#26120B;" d="M508.841,307.698c1.952-0.347,3.898-0.645,5.848-0.946v-4.479c1-2.553,3.428-4.579,7.28-6.081
		c4.403-1.7,8.808-1.474,13.211,0.677c2.003,0.95,3.629,2.851,4.88,5.703c0.246,0.506,0.438,1.034,0.637,1.563
		c8.862-0.398,17.754-0.256,26.683,0.403c-1.527-7.06-4.88-13.355-10.13-18.855c-7.356-7.705-16.314-11.56-26.873-11.56
		c-6.654,0-11.884,1.126-15.688,3.377v-21.843c0-3.553-1.275-6.606-3.829-9.158c-2.652-2.702-5.905-4.053-9.757-4.053h-0.227
		c-3.853,0-7.104,1.351-9.759,4.053c-2.552,2.552-3.827,5.605-3.827,9.158v56.578C494.436,310.557,501.61,308.98,508.841,307.698z"
		/>
	<path style="fill:#BE894A;" d="M567.428,304.734c-1.522-0.116-3.035-0.245-4.557-0.335c-7.395-0.432-14.76-0.419-22.094-0.076
		c0.858,2.358,1.309,4.945,1.309,7.782v0.9c0,5.405-1.427,9.984-4.279,13.737c-2.701,3.452-5.881,5.179-9.533,5.179
		c-2.302,0.351-4.579,0.15-6.831-0.6c-4.353-1.397-6.604-4.904-6.754-10.508v-13.844c-5.669,0.878-11.317,1.926-16.948,3.143
		c-3.494,0.756-6.973,1.563-10.45,2.388v34.206c0,1.702,0.65,3.204,1.952,4.506c1.2,1.2,2.775,1.8,4.728,1.8h14.112
		c1.852,0,3.452-0.65,4.805-1.951c1.201-1.201,1.802-2.628,1.802-4.278v2.853c3.804,2.253,9.033,3.377,15.688,3.377
		c10.559,0,19.517-3.852,26.873-11.56c7.406-7.754,11.109-17.037,11.109-27.848C568.358,310.519,568.024,307.57,567.428,304.734z
		 M494.188,324.644c2.756,0,2.756,4.27,0,4.27C491.436,328.913,491.436,324.644,494.188,324.644z M497.39,349.192
		c-2.752,0-2.752-4.27,0-4.27C500.147,344.923,500.147,349.192,497.39,349.192z M504.862,320.374c-2.752,0-2.752-4.271,0-4.271
		C507.62,316.104,507.62,320.374,504.862,320.374z M509.134,335.317c-2.754,0-2.754-4.268,0-4.268
		C511.89,331.05,511.89,335.317,509.134,335.317z M532.619,341.721c-2.753,0-2.753-4.268,0-4.268
		C535.376,337.453,535.376,341.721,532.619,341.721z M546.497,341.721c-2.752,0-2.752-4.268,0-4.268
		C549.255,337.453,549.255,341.721,546.497,341.721z M547.565,329.981c-2.752,0-2.752-4.271,0-4.271
		C550.323,325.711,550.323,329.981,547.565,329.981z M551.835,312.901c-2.752,0-2.752-4.271,0-4.271
		C554.593,308.631,554.593,312.901,551.835,312.901z M563.579,324.644c-2.752,0-2.752-4.27,0-4.27
		C566.335,320.374,566.335,324.644,563.579,324.644z"/>
	<path style="fill:#BE894A;" d="M552.903,339.693c-0.138,0-0.138-0.212,0-0.212S553.041,339.693,552.903,339.693z"/>
	<path style="fill:#26120B;" d="M551.835,324.749c-0.137,0-0.137-0.214,0-0.214C551.973,324.535,551.973,324.749,551.835,324.749z"
		/>
	<path style="fill:#26120B;" d="M493.12,339.693c-0.138,0-0.138-0.212,0-0.212S493.258,339.693,493.12,339.693z"/>
	<path style="fill:#26120B;" d="M510.2,345.031c-0.138,0-0.138-0.212,0-0.212S510.338,345.031,510.2,345.031z"/>
	<path style="fill:#26120B;" d="M505.931,329.018c-0.138,0-0.138-0.213,0-0.213C506.069,328.805,506.069,329.018,505.931,329.018z"
		/>
	<path style="fill:#26120B;" d="M528.349,338.628c-0.137,0-0.137-0.213,0-0.213C528.486,338.415,528.486,338.628,528.349,338.628z"
		/>
	<path style="fill:#26120B;" d="M592.453,275.925h-0.226c-4.002,0-7.404,1.401-10.208,4.205c-2.603,2.652-3.904,5.829-3.904,9.532
		v15.866c9.496,1.037,18.976,2.353,28.45,3.711v-19.577c0-3.703-1.377-6.931-4.13-9.683
		C599.734,277.277,596.406,275.925,592.453,275.925z"/>
	<path style="fill:#26120B;" d="M592.003,272.172c4.104,0,7.531-1.376,10.283-4.128c2.854-2.852,4.279-6.205,4.279-10.058
		c0-3.853-1.402-7.131-4.204-9.833c-2.803-2.852-6.255-4.279-10.358-4.279c-4.104,0-7.581,1.427-10.434,4.279
		c-2.752,2.702-4.129,5.98-4.129,9.833c0,3.854,1.377,7.156,4.129,9.908C584.422,270.747,587.898,272.172,592.003,272.172z"/>
	<path style="fill:#BE894A;" d="M578.115,305.712v33.566c0,3.751,1.353,6.979,4.054,9.681c2.703,2.702,6.057,4.054,10.059,4.054
		h0.226c3.953,0,7.308-1.399,10.06-4.204c2.702-2.602,4.053-5.779,4.053-9.53v-29.716
		C597.098,308.142,587.629,306.752,578.115,305.712z M581.727,315.035c-2.752,0-2.752-4.271,0-4.271
		C584.484,310.765,584.484,315.035,581.727,315.035z M588.133,333.181c-2.753,0-2.753-4.268,0-4.268
		C590.89,328.913,590.89,333.181,588.133,333.181z M594.538,319.306c2.757,0,2.757,4.271,0,4.271
		C591.786,323.576,591.786,319.306,594.538,319.306z M597.741,339.585c-2.752,0-2.752-4.268,0-4.268
		C600.496,335.317,600.496,339.585,597.741,339.585z M597.741,318.237c-2.752,0-2.752-4.27,0-4.27
		C600.496,313.968,600.496,318.237,597.741,318.237z"/>
	<path style="fill:#BE894A;" d="M584.931,332.223c-0.138,0-0.138-0.213,0-0.213S585.068,332.223,584.931,332.223z"/>
	<path style="fill:#26120B;" d="M599.875,326.883c-0.138,0-0.138-0.212,0-0.212S600.013,326.883,599.875,326.883z"/>
	<path style="fill:#26120B;" d="M595.606,342.897c-0.139,0-0.139-0.214,0-0.214C595.744,342.684,595.744,342.897,595.606,342.897z"
		/>
	<path style="fill:#26120B;" d="M590.269,320.477c-0.138,0-0.138-0.21,0-0.21S590.406,320.477,590.269,320.477z"/>
	<path style="fill:#26120B;" d="M643.948,314.132v-5.028l0.375-5.18c-0.152,2.452-0.177,3.453-0.076,3.002
		c0.551-3.002,2.953-5.804,7.206-8.407c4.654-2.853,9.082-3.252,13.287-1.2c4.103,2.001,6.154,6.956,6.154,14.864v3.594
		c8.958,0.12,17.939-0.292,26.951-1.412l-0.003-0.606c-0.051-12.01-3.078-21.819-9.084-29.425
		c-7.206-9.008-16.963-12.236-29.275-9.684c-2.502,0.5-7.581,3.002-15.236,7.506v2.852c0-2.402-0.852-4.453-2.553-6.154
		c-1.852-1.902-4.103-2.853-6.756-2.853h-8.632c-2.702,0-4.954,0.901-6.756,2.702c-1.802,1.801-2.7,3.929-2.7,6.38v25.625
		C625.878,311.989,634.905,313.205,643.948,314.132z"/>
	<path style="fill:#BE894A;" d="M697.846,314.514c-8.932,1.08-17.931,1.521-26.951,1.461v24.503c0,3.504,1.302,6.557,3.903,9.158
		c2.551,2.552,5.704,3.827,9.459,3.827h0.223c3.805,0,6.983-1.275,9.533-3.827c2.603-2.602,3.904-5.654,3.904-9.158L697.846,314.514
		z M677.81,322.508c-2.754,0-2.754-4.271,0-4.271C680.564,318.237,680.564,322.508,677.81,322.508z M682.079,337.453
		c-2.752,0-2.752-4.272,0-4.272C684.835,333.181,684.835,337.453,682.079,337.453z M691.688,334.249c-2.754,0-2.754-4.268,0-4.268
		C694.443,329.981,694.443,334.249,691.688,334.249z"/>
	<path style="fill:#26120B;" d="M694.89,325.815c-0.138,0-0.138-0.213,0-0.213S695.027,325.815,694.89,325.815z"/>
	<path style="fill:#BE894A;" d="M627.616,312.617c-3.59-0.48-7.178-0.996-10.766-1.524v29.385c0,3.504,1.298,6.557,3.901,9.158
		c2.553,2.552,5.705,3.827,9.459,3.827h0.373c3.754,0,6.906-1.275,9.46-3.827c2.603-2.602,3.904-5.654,3.904-9.158v-25.977
		C638.488,313.976,633.036,313.342,627.616,312.617z M620.159,328.913c-2.752,0-2.752-4.27,0-4.27
		C622.917,324.644,622.917,328.913,620.159,328.913z M625.497,341.721c-2.752,0-2.752-4.268,0-4.268
		C628.255,337.453,628.255,341.721,625.497,341.721z M637.24,334.249c-2.752,0-2.752-4.268,0-4.268
		C639.997,329.981,639.997,334.249,637.24,334.249z"/>
	<path style="fill:#BE894A;" d="M631.903,336.494c-0.139,0-0.139-0.214,0-0.214C632.041,336.28,632.041,336.494,631.903,336.494z"/>
	<path style="fill:#26120B;" d="M623.363,322.613c-0.139,0-0.139-0.213,0-0.213C623.501,322.4,623.501,322.613,623.363,322.613z"/>
	<path style="fill:#26120B;" d="M761.463,304.286c3.865,0.088,7.715,0.323,11.563,0.607c1.409-4.032,2.893-8.273,4.457-12.755
		c1.353-3.802,0.851-7.406-1.5-10.808c-2.452-3.453-5.904-5.18-10.358-5.18h-0.227c-2.752,0-5.279,0.826-7.581,2.477
		c-2.101,1.552-3.553,3.604-4.353,6.155c-2.395,7.883-4.4,14.506-6.031,19.932C752.092,304.323,756.774,304.174,761.463,304.286z"/>
	<path style="fill:#BE894A;" d="M747.341,305.021c-3.015,10.022-4.703,15.808-5.062,17.293l-5.288-16.028
		c-4.133,0.696-8.244,1.614-12.323,2.811c-3.886,1.142-7.803,2.121-11.733,2.953c6.807,16.146,10.862,27.557,12.155,34.207v0.302
		c0,7.904-2.077,12.86-6.229,14.863c-1.651,0.8-3.379,1.225-5.179,1.273c-3.004,0-5.531,1.078-7.583,3.229
		c-2.002,1.952-3.002,4.329-3.002,7.131v0.15c0,4.508,2.102,7.687,6.306,9.536c1.652,0.702,3.075,1.152,4.279,1.353
		c9.708,2.002,18.414,0.35,26.12-4.954c6.955-4.758,11.735-11.438,14.338-20.045c0.357-1.118,6.639-19.139,18.823-54.021
		C764.39,304.448,755.829,304.334,747.341,305.021z M708.281,373.419c-2.753,0-2.753-4.271,0-4.271
		C711.037,369.147,711.037,373.419,708.281,373.419z M718.375,373.747c-2.752,0-2.752-4.27,0-4.27
		C721.133,369.478,721.133,373.747,718.375,373.747z M722.517,377.689c-2.755,0-2.755-4.271,0-4.271
		C725.271,373.419,725.271,377.689,722.517,377.689z M723.228,365.59c-2.754,0-2.754-4.271,0-4.271
		C725.982,361.319,725.982,365.59,723.228,365.59z M726.917,313.968c2.756,0,2.756,4.27,0,4.27
		C724.165,318.237,724.165,313.968,726.917,313.968z M730.119,337.453c-2.753,0-2.753-4.272,0-4.272
		C732.875,333.181,732.875,337.453,730.119,337.453z M734.39,356.665c-2.752,0-2.752-4.269,0-4.269
		C737.145,352.396,737.145,356.665,734.39,356.665z M740.796,373.747c-2.755,0-2.755-4.27,0-4.27S743.551,373.747,740.796,373.747z
		 M746.134,331.05c2.755,0,2.755,4.268,0,4.268C743.38,335.317,743.38,331.05,746.134,331.05z M749.335,353.463
		c-2.752,0-2.752-4.271,0-4.271C752.092,349.192,752.092,353.463,749.335,353.463z M755.74,327.848c-2.752,0-2.752-4.271,0-4.271
		C758.497,323.576,758.497,327.848,755.74,327.848z M761.078,317.169c-2.752,0-2.752-4.268,0-4.268
		C763.835,312.901,763.835,317.169,761.078,317.169z"/>
	<path style="fill:#BE894A;" d="M757.876,318.343c-0.138,0-0.138-0.213,0-0.213S758.014,318.343,757.876,318.343z"/>
	<path style="fill:#26120B;" d="M737.592,361.045c-0.138,0-0.138-0.213,0-0.213C737.73,360.832,737.73,361.045,737.592,361.045z"/>
	<path style="fill:#26120B;" d="M742.93,338.628c-0.138,0-0.138-0.213,0-0.213S743.067,338.628,742.93,338.628z"/>
	<path style="fill:#26120B;" d="M724.781,323.681c-0.138,0-0.138-0.214,0-0.214C724.918,323.467,724.918,323.681,724.781,323.681z"
		/>
	<path style="fill:#26120B;" d="M712.783,311.683c6.486-1.54,12.882-3.362,19.45-4.759c1.556-0.328,3.124-0.575,4.688-0.842
		l-7.103-21.525c-0.801-2.502-2.252-4.503-4.354-6.004c-2.201-1.602-4.705-2.402-7.508-2.402h-1.876
		c-4.603,0-8.132,1.877-10.584,5.63c-2.352,3.653-2.627,7.432-0.825,11.335C707.709,299.877,710.406,306.061,712.783,311.683z"/>
</g>
<g>
	<path style="fill-rule:evenodd;clip-rule:evenodd;fill:#26120B;" d="M26.181,296.636c-0.349,1.077-0.593,2.175-0.892,3.263h14.5
		c0.398-0.652,0.784-1.309,1.226-1.95c2.529-3.68,5.515-6.838,9.551-8.721c2.573-1.195,5.248-1.903,8.057-2.171
		c6.361-0.611,12.285,0.909,17.915,3.924c2.528,1.354,4.889,3.007,6.921,5.077c1.212,1.234,2.153,2.76,3.05,4.284
		c0.095,0.163,0.127,0.397,0.438,0.452c0.746-1.29,1.594-2.55,2.517-3.744c1.619-2.097,3.721-3.599,5.887-4.982
		c4.111-2.629,8.568-4.323,13.337-4.921c6.722-0.847,13.075,0.289,18.596,4.696c2.898,2.31,5.049,5.342,6.971,8.543
		c4.814-0.11,9.632,0.03,14.449,0.233c-0.287-1.087-0.584-2.175-0.934-3.254c-0.314-0.973-0.306-1.642,0.31-2.532
		c3.354-4.85,4.398-10.506,4.725-16.324c0.208-3.735,0.245-7.498-0.344-11.218c-0.394-2.508-1.042-4.939-2.234-7.174
		c-0.556-1.045-1.423-1.538-2.565-1.405c-6.338,0.743-11.836,3.399-16.465,8.021c-0.537,0.534-1,1.417-1.604,1.534
		c-0.691,0.134-1.235-0.812-1.837-1.289c-3.393-2.715-7.076-4.897-10.974-6.692c-3.5-1.477-7.144-2.427-10.821-3.248
		c-1.436-0.13-2.867-0.329-4.307-0.37c-2.954-0.081-5.905,0.035-8.859,0.114c-4.528,0.119-9.057,0.133-13.586-0.085
		c-3.813-0.181-7.635-0.201-11.435,0.345c-1.24,0.289-2.481,0.576-3.72,0.867c-2.434,0.567-4.757,1.502-7.096,2.377
		c-4.443,2.025-8.587,4.585-12.328,7.835c-0.44,0.378-0.646,0.163-0.94-0.159c-0.846-0.923-1.692-1.848-2.646-2.655
		c-4.228-3.574-8.978-5.839-14.398-6.502c-1.813-0.221-2.578,0.124-3.408,1.847c-1.493,3.093-2.146,6.438-2.306,9.85
		c-0.206,4.351-0.195,8.708,0.53,13.027c0.723,4.307,1.994,8.378,4.573,11.887C26.332,295.824,26.328,296.189,26.181,296.636z
		 M135.229,273.039c2.343-2.076,5-3.379,8.042-3.81c0.876-0.121,1.484,0.187,1.876,1.04c0.565,1.225,0.992,2.512,1.098,3.854
		c0.092,1.173,0.36,2.341,0.261,3.093c-0.137,3.684-0.376,6.902-1.78,9.882c-0.125,0.267-0.191,0.662-0.497,0.704
		c-0.36,0.042-0.383-0.394-0.512-0.64c-1.7-3.262-3.533-6.433-5.708-9.369c-0.886-1.195-1.818-2.356-2.797-3.47
		C134.762,273.811,134.703,273.507,135.229,273.039z M27.64,273.19c0.213-1.092,0.537-2.151,1.06-3.128
		c0.327-0.616,0.798-0.961,1.212-0.881c3.515,0.399,6.309,1.768,8.734,4.009c0.392,0.36,0.33,0.614-0.004,0.986
		c-3.506,3.896-6.217,8.372-8.665,13.047c-0.114,0.224-0.135,0.594-0.452,0.582c-0.291-0.014-0.354-0.358-0.464-0.59
		c-0.867-1.828-1.379-3.771-1.593-5.789C27.181,278.678,27.109,275.923,27.64,273.19z"/>
	<path style="fill-rule:evenodd;clip-rule:evenodd;fill:#BE894A;" d="M148.789,304.54c-4.789-0.205-9.576-0.346-14.36-0.245
		c0.117,0.199,0.24,0.385,0.354,0.581c2.639,4.522,4.19,9.481,4.893,14.698c1.055,7.88,0.06,15.511-2.834,22.866
		c-1.75,4.446-4.023,8.503-7.434,11.807c-2.967,2.874-6.356,5.005-10.037,6.659c-4.637,2.078-9.523,3.184-14.497,3.802
		c-4.015,0.49-8.068,0.628-12.111,0.425c-2.561-0.132-5.119-0.567-7.679-0.328c-3.299,0.307-6.598,0.459-9.902,0.344
		c-6.368-0.205-12.64-1.104-18.669-3.363c-5.463-2.052-10.333-5.101-14.221-9.718c-2.504-2.974-4.183-6.453-5.582-10.103
		c-1.7-4.436-2.676-9.033-2.938-13.826c-0.479-8.854,1.413-16.975,5.834-24.324H25.211c-0.889,3.286-1.626,6.607-2.079,10.011
		c-0.754,5.658-1.166,11.324-0.747,17.045c0.314,4.297,1.062,8.491,2.366,12.567c2.543,7.941,6.89,14.537,13.408,19.43
		c8.69,6.527,18.616,8.469,29.027,8.307c3.075-0.055,6.159-0.132,9.237-0.25c4.305-0.171,8.616-0.014,12.923-0.092
		c7.097-0.117,14.183,0.511,21.284,0.256c5.755-0.197,11.347-1.262,16.709-3.51c7.221-3.014,13.086-7.846,17.34-14.704
		c4.45-7.174,6.384-15.198,6.785-23.655c0.196-4.152-0.023-8.289-0.494-12.433C150.5,312.645,149.827,308.546,148.789,304.54z"/>
	<path style="fill-rule:evenodd;clip-rule:evenodd;fill:#F1E3C9;" d="M116.934,260.852c-3.501-1.477-7.145-2.43-10.822-3.251
		c0.282-0.892,1.154-1.114,1.745-1.64c1.965-1.76,3.421-3.91,4.59-6.278c0.855-1.734,1.517-3.559,2.022-5.447
		c0.197-0.736-0.045-1.044-0.612-1.183c-2.064-0.514-3.886-1.553-5.61-2.794c-2.561-1.841-4.59-4.222-6-7.112
		c-0.814-1.665-0.564-4.187,0.73-5.592c1.479-1.609,3.623-2.018,5.581-1.242c1.39,0.55,2.062,1.751,2.778,2.938
		c0.884,1.465,2.119,2.502,3.53,3.343c0.535,0.32,0.703,0.19,0.722-0.467c0.061-2.085-0.451-4.065-0.927-6.051
		c-0.782-3.273-2.15-6.263-4.078-8.963c-0.518-0.725-1.102-1.396-1.656-2.094c-1.27-1.589-1.452-3.396-0.648-5.201
		c0.789-1.774,2.138-2.816,4.123-2.959c2.431-0.175,3.838,1.333,5.183,3.083c2.996,3.894,5.053,8.311,6.389,13.084
		c0.7,2.511,1.022,5.115,1.279,7.731c0.187,1.888,0.193,3.772,0.138,5.657c-0.087,3.025-0.515,6.015-1.202,8.958
		c-0.061,0.258-0.112,0.528-0.121,0.79c-0.011,0.34,0.077,0.5,0.461,0.315c3.28-1.56,5.753-3.821,6.528-7.748
		c0.581-2.954,4.253-4.561,6.772-3.055c2.192,1.313,3.059,3.359,2.52,5.957c-0.945,4.541-3.395,8.063-6.744,10.967
		c-3.055,2.656-6.651,4.09-10.47,4.94c-1.048,0.234-2.148,0.378-3.247,0.278c-0.396-0.038-0.718,0.024-0.995,0.421
		C118.275,259.137,117.589,259.984,116.934,260.852z"/>
	<path style="fill-rule:evenodd;clip-rule:evenodd;fill:#F1E3C9;" d="M67.924,257.607c-1.24,0.289-2.479,0.578-3.72,0.866
		c-2.434,0.571-4.758,1.502-7.096,2.38c-0.659-0.866-1.329-1.725-1.967-2.61c-0.216-0.293-0.434-0.447-0.8-0.433
		c-2.568,0.095-5.034-0.5-7.411-1.443c-5.902-2.338-10.363-6.283-12.669-12.646c-0.577-1.595-0.9-3.168-0.558-4.823
		c0.588-2.843,3.932-4.652,6.49-3.382c1.584,0.787,2.491,1.952,2.917,3.828c0.709,3.132,2.785,5.236,5.47,6.671
		c0.406,0.218,0.903,0.789,1.27,0.458c0.406-0.362-0.006-1.002-0.112-1.519c-0.421-2.034-0.695-4.09-0.939-6.158
		c-0.241-2.058-0.248-4.113-0.15-6.167c0.251-5.28,1.312-10.379,3.393-15.227c1.407-3.274,3.364-6.158,5.573-8.866
		c1.933-2.363,5.753-2.216,7.448,0.108c1.31,1.793,1.964,4.364-0.621,7.258c-1.555,1.742-2.706,3.75-3.622,5.916
		c-1.364,3.219-2.216,6.571-2.366,10.109c-0.04,0.872,0.188,1.032,0.893,0.572c1.32-0.858,2.575-1.802,3.34-3.257
		c1.152-2.191,2.735-3.476,5.251-3.305c2.169,0.151,4.091,2.271,4.263,4.544c0.167,2.222-0.933,3.786-2.064,5.384
		c-2.225,3.145-5.177,5.287-8.568,6.812c-0.705,0.313-1.838,0.047-2.036,0.986c-0.146,0.695,0.291,1.552,0.552,2.306
		c0.997,2.858,2.269,5.551,4.152,7.916c0.96,1.207,2.042,2.222,3.264,3.097C67.727,257.146,67.915,257.299,67.924,257.607z"/>
	<path style="fill-rule:evenodd;clip-rule:evenodd;fill:#F1E3C9;" d="M146.661,276.91c-0.139,3.684-0.377,6.902-1.78,9.883
		c-0.126,0.265-0.192,0.661-0.498,0.701c-0.357,0.047-0.383-0.396-0.512-0.639c-1.7-3.26-3.534-6.433-5.708-9.368
		c-0.885-1.194-1.817-2.357-2.796-3.47c-0.451-0.514-0.509-0.816,0.018-1.285c2.339-2.077,5-3.379,8.041-3.81
		c0.875-0.123,1.484,0.187,1.876,1.041c0.565,1.223,0.992,2.513,1.098,3.852C146.493,274.988,146.761,276.156,146.661,276.91z"/>
	<path style="fill-rule:evenodd;clip-rule:evenodd;fill:#F1E3C9;" d="M30.066,269.363c3.513,0.396,6.307,1.762,8.736,4.006
		c0.388,0.359,0.327,0.613-0.007,0.987c-3.503,3.891-6.218,8.371-8.662,13.048c-0.117,0.222-0.135,0.59-0.452,0.579
		c-0.293-0.013-0.355-0.357-0.467-0.589c-0.864-1.826-1.377-3.771-1.592-5.788c-0.289-2.752-0.358-5.504,0.173-8.236
		c0.211-1.093,0.534-2.151,1.06-3.128C29.182,269.626,29.65,269.278,30.066,269.363z"/>
</g>
</svg>
