<?xml version="1.0" encoding="iso-8859-1"?>
<!-- Generator: Adobe Illustrator 16.0.3, SVG Export Plug-In . SVG Version: 6.00 Build 0)  -->
<!DOCTYPE svg PUBLIC "-//W3C//DTD SVG 1.1//EN" "http://www.w3.org/Graphics/SVG/1.1/DTD/svg11.dtd">
<svg version="1.1" id="Layer_1" xmlns="http://www.w3.org/2000/svg" xmlns:xlink="http://www.w3.org/1999/xlink" x="0px" y="0px"
	 width="612px" height="792px" viewBox="0 0 612 792" style="enable-background:new 0 0 612 792;" xml:space="preserve">
<g>
	<path style="fill:#C7B299;" d="M48.389,386.673v-1.352c0.952-2.429,3.263-4.356,6.933-5.787c4.193-1.621,8.386-1.405,12.581,0.646
		c1.905,0.904,3.455,2.712,4.646,5.43c0.06,0.122,0.099,0.257,0.156,0.385c8.83,0.492,17.538,1.646,26.201,3.188
		c-1.254-7.418-4.571-13.977-9.989-19.657c-7.006-7.337-15.536-11.007-25.589-11.007c-6.337,0-11.317,1.072-14.938,3.218v-20.8
		c0-3.383-1.216-6.288-3.645-8.72c-2.526-2.574-5.624-3.859-9.293-3.859h-0.212c-3.671,0-6.766,1.285-9.292,3.859
		c-2.429,2.432-3.646,5.337-3.646,8.72v51.707C30.719,389.695,39.458,387.725,48.389,386.673z"/>
	<path style="fill:#BE894A;" d="M98.918,389.287c-0.836-0.144-1.669-0.302-2.508-0.438c-7.793-1.283-15.698-2.215-23.623-2.647
		c1.111,2.525,1.69,5.344,1.69,8.486v0.855c0,5.146-1.359,9.508-4.074,13.081c-2.574,3.286-5.6,4.931-9.079,4.931
		c-2.191,0.336-4.359,0.146-6.503-0.568c-4.145-1.332-6.291-4.671-6.433-10.006v-16.24c-2.286,0.257-4.567,0.57-6.839,0.959
		c-6.602,1.119-13.029,2.797-19.25,5.008v34.929c0,1.62,0.62,3.053,1.859,4.286c1.142,1.144,2.644,1.715,4.503,1.715h13.436
		c1.763,0,3.29-0.62,4.576-1.854c1.144-1.144,1.715-2.505,1.715-4.076v2.715c3.621,2.146,8.601,3.216,14.938,3.216
		c10.053,0,18.583-3.665,25.589-11.004c7.051-7.384,10.578-16.225,10.578-26.518C99.493,393.759,99.286,391.493,98.918,389.287z
		 M26.923,398.492c-2.622,0-2.622-4.066,0-4.066C29.544,394.426,29.544,398.492,26.923,398.492z M32.005,404.593
		c2.623,0,2.623,4.065,0,4.065C29.385,408.658,29.385,404.593,32.005,404.593z M35.055,426.951c-2.62,0-2.62-4.065,0-4.065
		C37.677,422.886,37.677,426.951,35.055,426.951z M41.154,393.41c2.623,0,2.623,4.065,0,4.065
		C38.534,397.476,38.534,393.41,41.154,393.41z M43.188,414.756c-2.622,0-2.622-4.065,0-4.065
		C45.81,410.69,45.81,414.756,43.188,414.756z M54.371,425.938c-2.623,0-2.623-4.071,0-4.071
		C56.991,421.867,56.991,425.938,54.371,425.938z M73.682,422.886c-2.62,0-2.62-4.063,0-4.063
		C76.305,418.822,76.305,422.886,73.682,422.886z M78.767,409.674c-2.621,0-2.621-4.065,0-4.065
		C81.388,405.608,81.388,409.674,78.767,409.674z M81.817,391.379c2.62,0,2.62,4.065,0,4.065
		C79.194,395.444,79.194,391.379,81.817,391.379z M83.847,417.807c-2.62,0-2.62-4.066,0-4.066
		C86.473,413.74,86.473,417.807,83.847,417.807z M86.899,408.658c-2.622,0-2.622-4.065,0-4.065
		C89.52,404.593,89.52,408.658,86.899,408.658z"/>
	<path style="fill:#BE894A;" d="M70.635,419.938c-0.132,0-0.132-0.201,0-0.201C70.765,419.737,70.765,419.938,70.635,419.938z"/>
	<path style="fill:#26120A;" d="M34.038,418.926c-0.13,0-0.13-0.202,0-0.202C34.17,418.724,34.17,418.926,34.038,418.926z"/>
	<path style="fill:#26120A;" d="M33.022,403.674c-0.13,0-0.13-0.201,0-0.201C33.154,403.473,33.154,403.674,33.022,403.674z"/>
	<path style="fill:#C7B299;" d="M132.299,395.543v-0.855c0-3.385,0.62-6.408,1.86-9.077c1.189-2.718,2.763-4.526,4.717-5.43
		c4.191-2.051,8.386-2.266,12.581-0.646c3.668,1.43,5.955,3.358,6.86,5.787v15.485c1.039,0.175,2.077,0.371,3.117,0.536
		c7.658,1.256,15.341,2.4,23.042,3.389v-34.203c0-2.62-1-4.932-3.001-6.934c-1.906-1.906-4.313-2.859-7.22-2.859h-5.861
		c-2.858,0-5.242,0.953-7.148,2.859c-1.955,1.955-2.93,4.243-2.93,6.863v-8.29c-1.047-2.432-6.003-3.648-14.867-3.648
		c-10.053,0-18.583,3.67-25.589,11.007c-5.82,6.098-9.198,13.216-10.215,21.324c0.7,0.142,1.399,0.291,2.101,0.436
		c7.534,1.483,15.047,3.11,22.568,4.7C132.311,395.837,132.299,395.692,132.299,395.543z"/>
	<path style="fill:#BE894A;" d="M158.316,401.025v1.955c-0.143,5.289-2.263,8.644-6.36,10.073c-2.146,0.67-4.314,0.837-6.505,0.501
		c-3.526,0-6.575-1.645-9.149-4.931c-2.591-3.468-3.912-7.684-3.987-12.632c-6.313-1.267-12.617-2.574-18.909-3.933
		c-1.22-0.267-2.439-0.521-3.659-0.773c-0.702-0.137-1.405-0.272-2.105-0.405c-0.211,1.707-0.356,3.441-0.356,5.234
		c0,10.293,3.525,19.134,10.576,26.518c7.006,7.339,15.536,11.004,25.589,11.004c3.146,0,7.411-1.737,12.794-5.215
		c0.811-0.572,1.69-0.786,2.646-0.646c0.952,0.099,1.809,0.55,2.571,1.359c2.812,3.004,5.219,4.501,7.22,4.501h9.437
		c1.809,0,3.332-0.62,4.574-1.854c1.188-1.144,1.785-2.526,1.785-4.146v-22.705C175.731,403.813,167.011,402.498,158.316,401.025z
		 M114.345,409.674c-2.621,0-2.621-4.065,0-4.065C116.966,405.608,116.966,409.674,114.345,409.674z M117.396,399.509
		c-2.623,0-2.623-4.064,0-4.064C120.015,395.444,120.015,399.509,117.396,399.509z M124.51,403.577c2.621,0,2.621,4.063,0,4.063
		S121.889,403.577,124.51,403.577z M127.56,422.886c-2.623,0-2.623-4.063,0-4.063S130.183,422.886,127.56,422.886z M140.775,417.807
		c2.62,0,2.62,4.061,0,4.061C138.153,421.867,138.153,417.807,140.775,417.807z M143.824,431.018c-2.621,0-2.621-4.066,0-4.066
		C146.447,426.951,146.447,431.018,143.824,431.018z M165.171,424.92c-2.622,0-2.622-4.068,0-4.068
		C167.794,420.852,167.794,424.92,165.171,424.92z M168.222,411.708c-2.623,0-2.623-4.068,0-4.068S170.844,411.708,168.222,411.708z
		 M179.404,424.92c-2.624,0-2.624-4.068,0-4.068C182.026,420.852,182.026,424.92,179.404,424.92z"/>
	<path style="fill:#BE894A;" d="M174.32,424.008c-0.132,0-0.132-0.205,0-0.205C174.453,423.803,174.453,424.008,174.32,424.008z"/>
	<path style="fill:#26120A;" d="M172.288,412.825c-0.132,0-0.132-0.204,0-0.204C172.417,412.621,172.417,412.825,172.288,412.825z"
		/>
	<path style="fill:#26120A;" d="M134.677,421.974c-0.133,0-0.133-0.205,0-0.205C134.806,421.769,134.806,421.974,134.677,421.974z"
		/>
	<path style="fill:#C7B299;" d="M220.93,408.072V390.54c0-3.097,1.023-5.763,3.072-8.005c2.001-2.189,4.383-3.335,7.147-3.428
		c2.906-0.098,5.433,0.905,7.576,3.001c2.191,2.144,3.289,4.788,3.289,7.934v18.624c4.175-0.013,8.343-0.104,12.498-0.389
		c4.622-0.324,9.222-0.847,13.803-1.492V390.54c0-3.097,1.026-5.763,3.074-8.005c2.002-2.189,4.383-3.335,7.149-3.428
		c2.952-0.098,5.479,0.905,7.574,3.001c2.24,2.144,3.36,4.788,3.36,7.934v12.84c8.153-1.805,16.261-3.82,24.371-5.806v-1.244
		c-0.046-11.485-2.955-20.826-8.72-28.021c-6.86-8.622-16.149-11.696-27.874-9.218c-4.011,0.819-9.456,4.529-16.294,11.059
		c-6.487-10.046-16.203-13.769-29.164-11.132c-3.145,0.669-6.028,2.145-8.649,4.433c-0.538,0.449-1.386,1.25-2.521,2.38
		c-0.406-1-1.014-1.912-1.84-2.737c-1.763-1.811-3.906-2.718-6.431-2.718h-8.291c-2.574,0-4.743,0.907-6.505,2.718
		c-1.62,1.62-2.43,3.573-2.43,5.861v37.53C203.708,406.918,212.309,407.629,220.93,408.072z M221.215,365.452v3.004
		c0-0.967-0.177-1.855-0.467-2.705C220.9,365.654,221.019,365.585,221.215,365.452z"/>
	<path style="fill:#BE894A;" d="M242.015,408.762v13.154c0,3.146,1.191,5.91,3.575,8.296c2.285,2.281,5.144,3.425,8.574,3.425h2.073
		c3.385,0,6.267-1.189,8.646-3.575c2.288-2.285,3.432-5,3.432-8.146v-14.951C259.568,408.122,250.804,408.653,242.015,408.762z
		 M248.527,427.967c-2.623,0-2.623-4.065,0-4.065C251.147,423.901,251.147,427.967,248.527,427.967z M249.544,413.74
		c-2.623,0-2.623-4.066,0-4.066C252.166,409.674,252.166,413.74,249.544,413.74z M258.69,427.967c-2.62,0-2.62-4.065,0-4.065
		C261.313,423.901,261.313,427.967,258.69,427.967z"/>
	<path style="fill:#BE894A;" d="M259.709,417.909c-0.131,0-0.131-0.203,0-0.203C259.841,417.706,259.841,417.909,259.709,417.909z"
		/>
	<path style="fill:#BE894A;" d="M289.474,403.138v18.778c0,3.146,1.119,5.86,3.357,8.146c2.383,2.386,5.289,3.575,8.724,3.575h0.212
		c3.429,0,6.338-1.189,8.721-3.575c2.238-2.285,3.357-5,3.357-8.146V397.34C305.734,399.334,297.63,401.36,289.474,403.138z
		 M298.338,419.841c-2.619,0-2.619-4.069,0-4.069C300.958,415.771,300.958,419.841,298.338,419.841z M304.436,403.577
		c2.623,0,2.623,4.063,0,4.063S301.813,403.577,304.436,403.577z M305.451,426.951c-2.62,0-2.62-4.065,0-4.065
		C308.074,422.886,308.074,426.951,305.451,426.951z"/>
	<path style="fill:#BE894A;" d="M302.401,415.873c-0.131,0-0.131-0.201,0-0.201S302.532,415.873,302.401,415.873z"/>
	<path style="fill:#BE894A;" d="M215.484,407.97c-6.799-0.455-13.584-1.067-20.358-1.795v15.741c0,3.146,1.145,5.86,3.431,8.146
		c2.382,2.386,5.266,3.575,8.647,3.575h1.574c3.431,0,6.29-1.144,8.577-3.425c2.382-2.386,3.574-5.15,3.574-8.296v-13.631
		C219.115,408.188,217.301,408.09,215.484,407.97z M205.833,416.788c-2.623,0-2.623-4.063,0-4.063
		C208.454,412.725,208.454,416.788,205.833,416.788z M209.899,424.92c-2.623,0-2.623-4.068,0-4.068S212.521,424.92,209.899,424.92z
		 M214.98,420.852c-2.621,0-2.621-4.063,0-4.063C217.604,416.788,217.604,420.852,214.98,420.852z"/>
	<path style="fill:#C7B299;" d="M343.803,390.49c1.856-0.328,3.711-0.615,5.565-0.9v-4.269c0.953-2.429,3.266-4.356,6.935-5.787
		c4.193-1.621,8.388-1.405,12.579,0.646c1.906,0.904,3.456,2.712,4.646,5.43c0.234,0.479,0.416,0.986,0.606,1.487
		c8.438-0.379,16.904-0.245,25.406,0.387c-1.454-6.727-4.646-12.719-9.646-17.958c-7.004-7.337-15.533-11.007-25.588-11.007
		c-6.334,0-11.315,1.072-14.938,3.218v-20.8c0-3.383-1.214-6.288-3.644-8.72c-2.526-2.574-5.623-3.859-9.292-3.859h-0.215
		c-3.669,0-6.765,1.285-9.292,3.859c-2.43,2.432-3.645,5.337-3.645,8.72v53.873C330.088,393.212,336.917,391.711,343.803,390.49z"/>
	<path style="fill:#BE894A;" d="M399.588,387.67c-1.449-0.112-2.89-0.234-4.339-0.322c-7.04-0.408-14.056-0.397-21.038-0.073
		c0.817,2.247,1.248,4.709,1.248,7.413v0.855c0,5.146-1.362,9.508-4.077,13.081c-2.57,3.286-5.599,4.931-9.077,4.931
		c-2.189,0.336-4.36,0.146-6.504-0.568c-4.145-1.332-6.29-4.671-6.433-10.006V389.8c-5.396,0.833-10.776,1.829-16.139,2.99
		c-3.324,0.719-6.637,1.486-9.948,2.273v32.572c0,1.62,0.618,3.053,1.857,4.286c1.145,1.144,2.645,1.715,4.504,1.715h13.436
		c1.764,0,3.287-0.62,4.574-1.854c1.145-1.144,1.716-2.505,1.716-4.076v2.715c3.623,2.146,8.604,3.216,14.938,3.216
		c10.055,0,18.584-3.665,25.588-11.004c7.055-7.384,10.578-16.225,10.578-26.518C400.473,393.176,400.154,390.368,399.588,387.67z
		 M329.851,406.624c2.622,0,2.622,4.066,0,4.066C327.228,410.69,327.228,406.624,329.851,406.624z M332.897,429.999
		c-2.619,0-2.619-4.061,0-4.061C335.523,425.938,335.523,429.999,332.897,429.999z M340.014,402.562c-2.62,0-2.62-4.069,0-4.069
		C342.639,398.492,342.639,402.562,340.014,402.562z M344.079,416.788c-2.621,0-2.621-4.063,0-4.063
		C346.706,412.725,346.706,416.788,344.079,416.788z M366.444,422.886c-2.622,0-2.622-4.063,0-4.063
		C369.067,418.822,369.067,422.886,366.444,422.886z M379.658,422.886c-2.619,0-2.619-4.063,0-4.063
		C382.284,418.822,382.284,422.886,379.658,422.886z M380.674,411.708c-2.617,0-2.617-4.068,0-4.068
		C383.3,407.64,383.3,411.708,380.674,411.708z M384.74,395.444c-2.62,0-2.62-4.065,0-4.065
		C387.365,391.379,387.365,395.444,384.74,395.444z M395.923,406.624c-2.62,0-2.62-4.063,0-4.063
		C398.548,402.562,398.548,406.624,395.923,406.624z"/>
	<path style="fill:#BE894A;" d="M385.759,420.954c-0.134,0-0.134-0.201,0-0.201C385.889,420.753,385.889,420.954,385.759,420.954z"
		/>
	<path style="fill:#26120A;" d="M384.74,406.726c-0.131,0-0.131-0.202,0-0.202S384.871,406.726,384.74,406.726z"/>
	<path style="fill:#26120A;" d="M328.832,420.954c-0.132,0-0.132-0.201,0-0.201C328.963,420.753,328.963,420.954,328.832,420.954z"
		/>
	<path style="fill:#26120A;" d="M345.096,426.037c-0.131,0-0.131-0.202,0-0.202S345.227,426.037,345.096,426.037z"/>
	<path style="fill:#26120A;" d="M341.032,410.791c-0.134,0-0.134-0.205,0-0.205C341.161,410.586,341.161,410.791,341.032,410.791z"
		/>
	<path style="fill:#26120A;" d="M362.379,419.938c-0.132,0-0.132-0.201,0-0.201C362.509,419.737,362.509,419.938,362.379,419.938z"
		/>
	<path style="fill:#C7B299;" d="M423.417,360.234h-0.214c-3.813,0-7.052,1.334-9.721,4.003c-2.478,2.527-3.717,5.55-3.717,9.08
		v15.104c9.041,0.988,18.066,2.244,27.087,3.535v-18.639c0-3.53-1.308-6.602-3.928-9.222
		C430.348,361.525,427.181,360.234,423.417,360.234z"/>
	<path style="fill:#C7B299;" d="M422.987,356.661c3.911,0,7.173-1.31,9.793-3.93c2.718-2.717,4.072-5.907,4.072-9.577
		s-1.333-6.791-3.998-9.363c-2.675-2.718-5.956-4.076-9.867-4.076c-3.908,0-7.217,1.358-9.936,4.076
		c-2.619,2.572-3.93,5.693-3.93,9.363s1.311,6.813,3.93,9.434C415.771,355.305,419.079,356.661,422.987,356.661z"/>
	<path style="fill:#BE894A;" d="M409.766,388.601v31.962c0,3.57,1.285,6.645,3.858,9.216c2.574,2.571,5.766,3.858,9.579,3.858h0.214
		c3.764,0,6.959-1.328,9.576-4.003c2.576-2.475,3.859-5.501,3.859-9.071v-28.296C427.84,390.91,418.823,389.59,409.766,388.601z
		 M413.205,397.476c-2.623,0-2.623-4.065,0-4.065C415.83,393.41,415.83,397.476,413.205,397.476z M419.303,414.756
		c-2.623,0-2.623-4.065,0-4.065C421.928,410.69,421.928,414.756,419.303,414.756z M425.402,401.543c2.623,0,2.623,4.065,0,4.065
		S422.779,401.543,425.402,401.543z M428.453,420.852c-2.622,0-2.622-4.063,0-4.063
		C431.076,416.788,431.076,420.852,428.453,420.852z M428.453,400.527c-2.622,0-2.622-4.067,0-4.067
		C431.076,396.46,431.076,400.527,428.453,400.527z"/>
	<path style="fill:#BE894A;" d="M416.255,413.844c-0.13,0-0.13-0.204,0-0.204C416.386,413.64,416.386,413.844,416.255,413.844z"/>
	<path style="fill:#26120A;" d="M430.482,408.757c-0.132,0-0.132-0.202,0-0.202C430.615,408.555,430.615,408.757,430.482,408.757z"
		/>
	<path style="fill:#26120A;" d="M426.418,424.008c-0.133,0-0.133-0.205,0-0.205C426.553,423.803,426.553,424.008,426.418,424.008z"
		/>
	<path style="fill:#26120A;" d="M421.337,402.656c-0.134,0-0.134-0.199,0-0.199C421.467,402.457,421.467,402.656,421.337,402.656z"
		/>
	<path style="fill:#C7B299;" d="M472.449,396.616v-4.785l0.356-4.935c-0.141,2.336-0.166,3.289-0.07,2.859
		c0.525-2.859,2.813-5.529,6.86-8.007c4.436-2.718,8.648-3.097,12.652-1.145c3.908,1.907,5.861,6.623,5.861,14.157v3.42
		c8.529,0.114,17.08-0.277,25.662-1.345l-0.003-0.578c-0.049-11.433-2.931-20.773-8.647-28.018
		c-6.862-8.579-16.157-11.651-27.876-9.22c-2.386,0.478-7.22,2.858-14.51,7.147v2.715c0-2.288-0.812-4.24-2.433-5.861
		c-1.762-1.808-3.904-2.715-6.43-2.715h-8.225c-2.57,0-4.714,0.858-6.43,2.574c-1.716,1.713-2.571,3.742-2.571,6.073v24.401
		C455.242,394.576,463.838,395.733,472.449,396.616z"/>
	<path style="fill:#BE894A;" d="M523.771,396.978c-8.502,1.029-17.073,1.449-25.662,1.392v23.334c0,3.337,1.239,6.24,3.714,8.718
		c2.43,2.432,5.431,3.649,9.009,3.649h0.213c3.62,0,6.65-1.218,9.08-3.649c2.476-2.478,3.715-5.381,3.715-8.718L523.771,396.978z
		 M504.693,404.593c-2.622,0-2.622-4.065,0-4.065C507.319,400.527,507.319,404.593,504.693,404.593z M508.757,418.822
		c-2.616,0-2.616-4.066,0-4.066C511.381,414.756,511.381,418.822,508.757,418.822z M517.905,415.771c-2.62,0-2.62-4.063,0-4.063
		C520.53,411.708,520.53,415.771,517.905,415.771z"/>
	<path style="fill:#26120A;" d="M520.958,407.741c-0.134,0-0.134-0.202,0-0.202C521.088,407.539,521.088,407.741,520.958,407.741z"
		/>
	<path style="fill:#BE894A;" d="M456.898,395.175c-3.417-0.46-6.833-0.95-10.251-1.454v27.982c0,3.337,1.234,6.24,3.715,8.718
		c2.432,2.432,5.437,3.649,9.007,3.649h0.356c3.573,0,6.574-1.218,9.007-3.649c2.48-2.478,3.717-5.381,3.717-8.718v-24.736
		C467.25,396.466,462.063,395.863,456.898,395.175z M449.799,410.69c-2.622,0-2.622-4.066,0-4.066
		C452.422,406.624,452.422,410.69,449.799,410.69z M454.881,422.886c-2.62,0-2.62-4.063,0-4.063
		C457.509,418.822,457.509,422.886,454.881,422.886z M466.063,415.771c-2.617,0-2.617-4.063,0-4.063
		C468.686,411.708,468.686,415.771,466.063,415.771z"/>
	<path style="fill:#BE894A;" d="M460.981,417.909c-0.134,0-0.134-0.203,0-0.203C461.112,417.706,461.112,417.909,460.981,417.909z"
		/>
	<path style="fill:#26120A;" d="M452.849,404.691c-0.133,0-0.133-0.202,0-0.202C452.979,404.489,452.979,404.691,452.849,404.691z"
		/>
	<path style="fill:#C7B299;" d="M584.348,387.239c3.68,0.087,7.347,0.311,11.008,0.58c1.346-3.837,2.759-7.879,4.245-12.144
		c1.289-3.623,0.813-7.054-1.427-10.294c-2.334-3.285-5.623-4.932-9.861-4.932h-0.218c-2.62,0-5.027,0.787-7.22,2.361
		c-1.999,1.476-3.383,3.431-4.143,5.86c-2.281,7.506-4.193,13.813-5.743,18.977C575.423,387.274,579.887,387.133,584.348,387.239z"
		/>
	<path style="fill:#BE894A;" d="M570.901,387.941c-2.873,9.544-4.479,15.053-4.819,16.466l-5.036-15.262
		c-3.935,0.665-7.852,1.536-11.734,2.675c-3.701,1.089-7.43,2.02-11.174,2.813c6.483,15.376,10.343,26.236,11.577,32.573v0.283
		c0,7.531-1.978,12.248-5.936,14.157c-1.57,0.756-3.213,1.165-4.928,1.206c-2.86,0-5.268,1.031-7.221,3.08
		c-1.909,1.86-2.859,4.12-2.859,6.787v0.146c0,4.292,2.002,7.317,6.005,9.076c1.572,0.668,2.928,1.096,4.075,1.286
		c9.242,1.909,17.532,0.338,24.869-4.714c6.623-4.534,11.177-10.891,13.652-19.085c0.343-1.068,6.323-18.223,17.925-51.44
		C587.134,387.395,578.979,387.288,570.901,387.941z M533.706,453.069c-2.62,0-2.62-4.069,0-4.069
		C536.334,449,536.334,453.069,533.706,453.069z M543.32,453.38c-2.62,0-2.62-4.064,0-4.064
		C545.948,449.315,545.948,453.38,543.32,453.38z M547.264,457.132c-2.62,0-2.62-4.063,0-4.063S549.884,457.132,547.264,457.132z
		 M547.938,445.611c-2.622,0-2.622-4.063,0-4.063C550.563,441.549,550.563,445.611,547.938,445.611z M551.454,396.46
		c2.626,0,2.626,4.067,0,4.067C548.832,400.527,548.832,396.46,551.454,396.46z M554.499,418.822c-2.62,0-2.62-4.066,0-4.066
		C557.124,414.756,557.124,418.822,554.499,418.822z M558.571,437.115c-2.626,0-2.626-4.063,0-4.063
		C561.193,433.053,561.193,437.115,558.571,437.115z M564.666,453.38c-2.623,0-2.623-4.064,0-4.064
		C567.291,449.315,567.291,453.38,564.666,453.38z M569.75,412.725c2.625,0,2.625,4.063,0,4.063
		C567.13,416.788,567.13,412.725,569.75,412.725z M572.797,434.07c-2.619,0-2.619-4.071,0-4.071
		C575.423,429.999,575.423,434.07,572.797,434.07z M578.896,409.674c-2.617,0-2.617-4.065,0-4.065
		C581.523,405.608,581.523,409.674,578.896,409.674z M583.982,399.509c-2.622,0-2.622-4.064,0-4.064
		C586.607,395.444,586.607,399.509,583.982,399.509z"/>
	<path style="fill:#BE894A;" d="M580.93,400.624c-0.128,0-0.128-0.201,0-0.201C581.063,400.423,581.063,400.624,580.93,400.624z"/>
	<path style="fill:#26120A;" d="M561.618,441.29c-0.13,0-0.13-0.204,0-0.204C561.749,441.086,561.749,441.29,561.618,441.29z"/>
	<path style="fill:#26120A;" d="M566.703,419.938c-0.134,0-0.134-0.201,0-0.201C566.83,419.737,566.83,419.938,566.703,419.938z"/>
	<path style="fill:#26120A;" d="M549.42,405.707c-0.133,0-0.133-0.202,0-0.202C549.551,405.505,549.551,405.707,549.42,405.707z"/>
	<path style="fill:#C7B299;" d="M537.992,394.282c6.18-1.466,12.27-3.198,18.522-4.532c1.479-0.31,2.974-0.544,4.466-0.801
		l-6.765-20.493c-0.762-2.383-2.144-4.289-4.142-5.719c-2.1-1.522-4.485-2.288-7.152-2.288h-1.789
		c-4.382,0-7.737,1.789-10.073,5.362c-2.242,3.478-2.503,7.075-0.787,10.795C533.164,383.043,535.732,388.933,537.992,394.282z"/>
</g>
</svg>
