<?xml version="1.0" encoding="iso-8859-1"?>
<!-- Generator: Adobe Illustrator 16.0.3, SVG Export Plug-In . SVG Version: 6.00 Build 0)  -->
<!DOCTYPE svg PUBLIC "-//W3C//DTD SVG 1.1//EN" "http://www.w3.org/Graphics/SVG/1.1/DTD/svg11.dtd">
<svg version="1.1" id="Layer_1" xmlns="http://www.w3.org/2000/svg" xmlns:xlink="http://www.w3.org/1999/xlink" x="0px" y="0px"
	 width="612px" height="792px" viewBox="0 0 612 792" style="enable-background:new 0 0 612 792;" xml:space="preserve">
<g>
	<g>
		<g>
			<path style="fill:#F5AB9D;" d="M477.408,514.811c-14.279-38.371-101.602-56.696-116.895-67.817
				c-19.632-14.274-13.385-61.57-13.385-61.57l-32.123,0.846l-32.122-0.846c0,0,6.247,47.296-13.384,61.57
				c-15.292,11.121-102.617,29.446-116.893,67.817c-14.276,38.367-19.63,72.275-19.63,72.275h180.245h3.568h180.248
				C497.038,587.086,491.682,553.178,477.408,514.811z"/>
			<path style="fill:#CC887F;" d="M276.933,438.182c15.038-1.536,30.152-4.584,43.246-11.907
				c9.543-5.339,18.139-11.64,26.116-18.734c-0.474-12.156,0.834-22.117,0.834-22.117l-32.123,0.846l-32.122-0.846
				C282.884,385.423,287.33,419.082,276.933,438.182z"/>
		</g>
		<g>
			<path style="fill:#6D96B8;" d="M479.939,514.277c-11.118-29.883-66.189-47.686-97.733-59.41
				c-13.72,15.835-38.077,26.374-65.861,26.374c-27.782,0-52.141-10.539-65.858-26.374c-31.547,11.725-86.616,29.531-97.734,59.41
				c-14.382,38.649-19.775,72.809-19.775,72.809h181.57h3.597h181.572C499.716,587.086,494.322,552.927,479.939,514.277z"/>
			<path style="fill:#84B6D3;" d="M316.229,493.483c35.244,0,65.485-14.033,78.449-34.045c-4.423-1.62-8.624-3.141-12.472-4.571
				c-13.72,15.835-38.077,26.374-65.861,26.374c-27.782,0-52.141-10.539-65.858-26.374c-3.902,1.452-8.166,2.994-12.66,4.643
				C250.817,479.483,281.027,493.483,316.229,493.483z"/>
		</g>
	</g>
	<g>
		<g>
			<path style="fill:#CC887F;" d="M261.068,311.7c-5.188-16.096-17.474-12.368-18.624-11.98c-1.207,0.14-13.904,2.026-11.711,18.794
				c2.208,16.869,11.995,26.009,21.173,23.324C261.35,340.339,266.286,327.891,261.068,311.7z"/>
			<path style="fill:#CC887F;" d="M364.934,311.7c5.189-16.096,17.475-12.368,18.624-11.98c1.207,0.14,13.906,2.026,11.711,18.794
				c-2.209,16.869-11.997,26.009-21.171,23.324C364.652,340.339,359.717,327.891,364.934,311.7z"/>
			<path style="fill:#F5AB9D;" d="M378.048,286.378c-6.43-70.562-60.074-66.609-65.132-66.077
				c-5.058-0.532-58.701-4.484-65.131,66.077c-6.467,70.983,25.149,117.341,65.131,114.792
				C352.898,403.72,384.516,357.362,378.048,286.378z"/>
		</g>
		<g>
			<g>
				<path style="fill:#CC887F;" d="M320.581,310.471c0.257,1.152,0.476,2.309,0.704,3.465c0.237,1.154,0.437,2.314,0.639,3.474
					c0.415,2.317,0.815,4.637,1.173,6.963c0.354,2.326,0.711,4.652,1.022,6.984c0.325,2.331,0.625,4.665,0.896,7.003l0.027,0.239
					l-0.161,0.144l-4.16,3.721c-1.414,1.211-2.804,2.449-4.243,3.633c1.26-1.374,2.57-2.695,3.856-4.042l3.939-3.953l-0.134,0.383
					c-0.396-2.32-0.762-4.645-1.103-6.973c-0.354-2.326-0.663-4.659-0.976-6.991c-0.309-2.333-0.574-4.672-0.825-7.013
					c-0.131-1.17-0.265-2.339-0.36-3.514C320.771,312.821,320.657,311.649,320.581,310.471z"/>
			</g>
			<path style="fill:#FFFFFF;" d="M281.856,356.481l63.661-0.666C345.518,355.815,320.059,380.868,281.856,356.481z"/>
			<g>
				<path style="fill:#CC887F;" d="M298.182,369.267c0,0,0.646,0.24,1.774,0.659c0.557,0.231,1.249,0.467,2.047,0.708
					c0.792,0.258,1.686,0.539,2.68,0.789c0.496,0.129,1.007,0.28,1.543,0.406c0.541,0.108,1.099,0.22,1.672,0.335
					c0.571,0.129,1.164,0.224,1.774,0.293c0.607,0.083,1.228,0.168,1.857,0.254c1.27,0.095,2.577,0.223,3.912,0.206
					c1.334,0.06,2.686-0.073,4.033-0.163c0.671-0.084,1.342-0.168,2.011-0.252c0.67-0.075,1.319-0.254,1.975-0.374l0.975-0.199
					c0.317-0.088,0.634-0.176,0.948-0.263c0.626-0.183,1.258-0.328,1.857-0.537c1.187-0.45,2.366-0.81,3.417-1.323
					c0.53-0.243,1.062-0.453,1.55-0.705c0.484-0.263,0.951-0.516,1.4-0.76c0.913-0.465,1.685-0.999,2.398-1.432
					c0.352-0.224,0.689-0.423,0.987-0.625c0.291-0.215,0.558-0.412,0.799-0.59c0.977-0.704,1.534-1.106,1.534-1.106
					s-0.509,0.464-1.399,1.276c-0.226,0.201-0.476,0.424-0.748,0.666c-0.281,0.231-0.601,0.462-0.934,0.719
					c-0.675,0.504-1.41,1.119-2.317,1.631c-0.442,0.273-0.904,0.559-1.382,0.853c-0.484,0.285-1.012,0.529-1.541,0.808
					c-1.047,0.584-2.229,1.032-3.444,1.516c-0.61,0.232-1.255,0.4-1.896,0.607c-0.322,0.099-0.646,0.199-0.972,0.299l-1.003,0.216
					c-0.674,0.131-1.344,0.32-2.034,0.405c-0.689,0.093-1.382,0.186-2.073,0.279c-1.392,0.081-2.787,0.202-4.159,0.129
					c-1.375,0.012-2.715-0.181-4.013-0.31c-0.646-0.095-1.276-0.213-1.893-0.329c-0.619-0.105-1.218-0.235-1.793-0.398
					c-0.576-0.15-1.138-0.295-1.681-0.436c-0.538-0.159-1.049-0.34-1.543-0.499c-0.491-0.169-0.97-0.302-1.409-0.482
					c-0.437-0.184-0.852-0.358-1.241-0.521c-0.783-0.316-1.45-0.614-1.983-0.894C298.795,369.579,298.182,369.267,298.182,369.267z"
					/>
			</g>
			<g>
				<ellipse style="fill:#362D38;" cx="283.948" cy="311.535" rx="4.406" ry="9.623"/>
				<ellipse style="fill:#362D38;" cx="344.489" cy="311.535" rx="4.405" ry="9.623"/>
			</g>
			<g>
				<path style="fill:#362D38;" d="M268.728,295.788c0,0,0.286-0.489,0.886-1.281c0.603-0.787,1.524-1.875,2.79-3.033
					c0.64-0.569,1.341-1.189,2.156-1.751c0.802-0.579,1.683-1.157,2.66-1.646c0.963-0.512,2.016-0.955,3.121-1.308
					c1.116-0.32,2.275-0.592,3.465-0.697c0.592-0.064,1.193-0.044,1.786-0.053c0.592,0.056,1.189,0.044,1.767,0.16
					c0.583,0.081,1.156,0.183,1.705,0.358c0.559,0.136,1.09,0.33,1.606,0.534c1.038,0.389,1.981,0.901,2.818,1.449
					c0.431,0.257,0.831,0.532,1.193,0.831c0.361,0.298,0.737,0.55,1.044,0.856c0.636,0.583,1.213,1.117,1.657,1.656
					c0.465,0.517,0.86,0.97,1.143,1.381c0.585,0.803,0.898,1.268,0.898,1.268s-0.451-0.35-1.203-0.973
					c-0.362-0.327-0.854-0.663-1.387-1.074c-0.523-0.424-1.173-0.818-1.845-1.282c-0.33-0.241-0.72-0.42-1.095-0.644
					c-0.375-0.226-0.765-0.447-1.188-0.634c-0.415-0.199-0.833-0.418-1.289-0.571c-0.451-0.163-0.892-0.374-1.373-0.495
					c-0.47-0.15-0.95-0.292-1.448-0.375c-0.492-0.116-0.997-0.179-1.504-0.246c-0.505-0.094-1.026-0.065-1.541-0.106
					c-0.518,0.021-1.039,0.014-1.557,0.08c-1.041,0.067-2.072,0.287-3.075,0.548c-0.99,0.311-1.982,0.6-2.895,1.025
					c-0.918,0.405-1.801,0.832-2.612,1.292c-0.815,0.454-1.565,0.931-2.259,1.375C270.417,294.269,268.728,295.788,268.728,295.788z
					"/>
			</g>
			<g>
				<path style="fill:#362D38;" d="M329.693,295.788c0,0,0.286-0.489,0.886-1.281c0.603-0.787,1.523-1.875,2.79-3.033
					c0.64-0.569,1.341-1.189,2.156-1.751c0.803-0.579,1.683-1.157,2.66-1.646c0.963-0.512,2.016-0.955,3.12-1.308
					c1.116-0.32,2.275-0.592,3.466-0.697c0.593-0.064,1.193-0.044,1.786-0.053c0.593,0.056,1.189,0.044,1.768,0.16
					c0.583,0.081,1.156,0.183,1.705,0.358c0.56,0.136,1.09,0.33,1.606,0.534c1.038,0.389,1.981,0.901,2.818,1.449
					c0.431,0.257,0.831,0.532,1.193,0.83c0.361,0.299,0.737,0.551,1.045,0.856c0.636,0.584,1.213,1.118,1.657,1.656
					c0.465,0.517,0.859,0.97,1.143,1.381c0.585,0.803,0.898,1.268,0.898,1.268s-0.451-0.35-1.203-0.973
					c-0.362-0.327-0.854-0.663-1.387-1.074c-0.523-0.424-1.174-0.818-1.846-1.282c-0.33-0.241-0.72-0.42-1.095-0.644
					c-0.375-0.226-0.766-0.447-1.188-0.634c-0.415-0.199-0.833-0.419-1.289-0.571c-0.451-0.162-0.892-0.374-1.372-0.494
					c-0.47-0.15-0.949-0.292-1.448-0.375c-0.492-0.116-0.996-0.179-1.505-0.246c-0.505-0.094-1.025-0.065-1.541-0.106
					c-0.518,0.022-1.039,0.014-1.557,0.08c-1.041,0.067-2.071,0.287-3.075,0.548c-0.99,0.311-1.982,0.6-2.895,1.025
					c-0.918,0.405-1.801,0.832-2.612,1.292c-0.815,0.454-1.564,0.931-2.259,1.375C331.383,294.269,329.693,295.788,329.693,295.788z
					"/>
			</g>
		</g>
		<g>
			<path style="fill:#965450;" d="M247.992,321.167c0,0-16.808-69.632-7.203-89.64c9.604-20.01,20.809-13.608,20.809-13.608
				s15.208-41.617,47.222-33.615c32.014,8.004,50.424,22.411,67.23,8.004c0,0,0,12.807-9.604,18.408c0,0,20.01,0,28.012-19.208
				c0,0,11.958,41.061-14.453,55.467c0,0,1.979,51.304,0.049,70.189l-7.205-0.8c0,0-4-27.212-6.402-61.628
				c0,0-41.619,22.411-92.041-16.808c0,0,7.203,26.412-21.61,43.22l2.401,36.817L247.992,321.167z"/>
			<path style="fill:#76413B;" d="M350.503,259.779c-11.908-0.812-23.834-3.442-33.508-7.156
				c-21.647-8.315-40.248-32.97-41.718-56.859c-9.196,9.926-13.679,22.156-13.679,22.156s-11.204-6.402-20.809,13.608
				c-9.604,20.007,7.203,89.64,7.203,89.64l7.204-3.201l-2.401-36.817c28.813-16.808,21.61-43.22,21.61-43.22
				C305.849,262.386,333.865,262.875,350.503,259.779z"/>
		</g>
	</g>
</g>
</svg>
